<?xml version="1.0" encoding="utf-8"?>
<!-- Generator: Adobe Illustrator 26.0.3, SVG Export Plug-In . SVG Version: 6.00 Build 0)  -->
<svg version="1.1" id="Ebene_1" xmlns="http://www.w3.org/2000/svg" xmlns:xlink="http://www.w3.org/1999/xlink" x="0px" y="0px"
	 viewBox="0 0 208.3 73.7" enable-background="new 0 0 208.3 73.7" xml:space="preserve">
<rect y="0" fill="#FFFFFF" width="208.3" height="73.7"/>
<g>
	<rect x="14.3" y="14.2" fill="#009641" width="45.4" height="45.4"/>
	<g>
		<path fill="#FFFFFF" d="M53.5,30l0.1-0.8h-5.3l0.1,0.8l1.4,0.2c0.7,0.1,0.7,0.3,0.7,3.2v7.3h-0.1l-8.2-11.5h-3.9l0.1,0.8l1.3,0.2
			c0.5,0.3,0.7,0.6,0.7,1.6v7.5c0,2.9-0.1,3.1-0.7,3.2l-1.4,0.2l-0.1,0.8h5.2l-0.1-0.8l-1.4-0.2c-0.7-0.1-0.7-0.3-0.7-3.2v-8.2h0.1
			l9,12.6h1.1V33.4c0-2.9,0.1-3.1,0.8-3.2L53.5,30z"/>
		<path fill="#FFFFFF" d="M30.3,39.9c0,1.9-1.5,2.8-3.2,2.9l-0.7,0l-1.8-0.3v-5.8h1.4C28.6,36.8,30.3,37.8,30.3,39.9 M29.8,33.1
			c0,1.3-1,2.8-3.3,2.8l-1.8,0v-5.7h1.4C28.7,30.2,29.8,31.3,29.8,33.1 M32.3,39.8c0-1.7-1.2-3.2-4-3.5v-0.1
			c2.1-0.4,3.5-1.8,3.5-3.7c0-1.6-1.2-3.1-5-3.1H21l0.1,0.8l1.2,0.1c0.5,0.1,0.6,0.1,0.6,0.3v11.8c0,0.2-0.2,0.3-0.6,0.3L21,42.9
			L21,43.7h5.7C30.2,43.7,32.3,42.3,32.3,39.8"/>
		<path fill="#FFFFFF" d="M29.3,35.9c0,0,3.4,0.2,6.3-0.2c3.5-0.5,6.8-1.6,6.9-1.6c0,0,0.1,0.1,0.1,0.1c0,0-2.2,1.5-6.8,2.2
			c-2.3,0.4-6.1,0.3-6.1,0.3c0,0-3.3,0-3.9,0V36L29.3,35.9z"/>
		<path fill="#FFFFFF" d="M36.6,29.7c-3.7,6.1-4.1,14.2-4.8,21.6l0.8,0c0.7-7.3,1.6-15.4,5-20.8c4-5.7,7.4-6.2,11-6.2l0-2.4
			C48.5,21.8,42,21.2,36.6,29.7"/>
	</g>
</g>
<g>
	<path fill="#1D1D1B" d="M188.3,48.2v-3.8c0-0.7,0.2-1.3,0.5-1.7c0.4-0.4,0.8-0.6,1.3-0.6c0.4,0,0.8,0.1,1.1,0.4
		c0.3,0.3,0.4,0.6,0.4,1.1v4.7h1.2v-4.9c0-0.7-0.2-1.3-0.7-1.7c-0.5-0.4-1.1-0.6-1.8-0.6c-0.9,0-1.7,0.4-2.2,1.2v-1.1H187v7H188.3z
		 M180,44.7c0-0.8,0.2-1.4,0.5-1.9c0.4-0.5,0.9-0.8,1.5-0.8s1.2,0.3,1.5,0.8c0.4,0.5,0.5,1.2,0.5,1.9c0,0.8-0.2,1.4-0.5,1.9
		c-0.4,0.5-0.9,0.8-1.5,0.8s-1.2-0.3-1.5-0.8C180.2,46.1,180,45.5,180,44.7 M178.8,44.7c0,1.1,0.3,2,0.9,2.7c0.6,0.7,1.4,1,2.5,1
		c1,0,1.9-0.3,2.5-1c0.6-0.7,0.9-1.6,0.9-2.7c0-1.1-0.3-2-0.9-2.7c-0.6-0.7-1.4-1-2.5-1c-1,0-1.9,0.3-2.5,1
		C179.1,42.7,178.8,43.6,178.8,44.7 M177.2,41.2H176v7h1.2V41.2z M176,39.3c0.2,0.2,0.3,0.2,0.6,0.2c0.2,0,0.4-0.1,0.6-0.2
		c0.2-0.2,0.2-0.3,0.2-0.6c0-0.2-0.1-0.4-0.2-0.6c-0.2-0.2-0.3-0.2-0.6-0.2c-0.2,0-0.4,0.1-0.6,0.2c-0.2,0.2-0.2,0.4-0.2,0.6
		C175.8,39,175.8,39.2,176,39.3 M173.6,47.4c-0.5,0-0.7-0.3-0.7-0.8v-4.4h1.6v-1h-1.6v-2.6l-1.2,0.6v2h-1.2v1h1.2v4.5
		c0,0.5,0.2,0.9,0.5,1.2c0.3,0.3,0.8,0.5,1.3,0.5c0.5,0,0.9-0.1,1.3-0.3l-0.4-1C174.1,47.3,173.9,47.4,173.6,47.4 M165.4,47.1
		c-0.3-0.2-0.4-0.5-0.4-0.8c0-0.9,1.1-1.4,3.4-1.4v0.6c0,0.6-0.2,1-0.6,1.4c-0.4,0.4-0.9,0.5-1.4,0.5
		C166,47.4,165.6,47.3,165.4,47.1 M169.6,47.3v-3.8c0-0.8-0.2-1.3-0.7-1.8c-0.5-0.4-1.1-0.7-2-0.7c-0.8,0-1.4,0.2-2,0.6
		c-0.5,0.4-0.8,0.9-0.9,1.6l1.2,0.2c0-0.4,0.2-0.7,0.4-1c0.3-0.2,0.7-0.4,1.2-0.4c0.5,0,0.9,0.1,1.2,0.4c0.3,0.3,0.4,0.7,0.4,1.2V44
		c-3.1,0-4.7,0.8-4.7,2.4c0,0.6,0.2,1.1,0.6,1.4c0.4,0.4,1,0.5,1.6,0.5c1,0,1.8-0.4,2.4-1.1c0,0.4,0.1,0.7,0.2,0.9h1.2
		C169.7,47.9,169.6,47.6,169.6,47.3 M160.6,48.2l2.7-7h-1.2l-0.9,2.5c-0.4,1.1-0.8,2.2-1.1,3.3h0c-0.3-0.9-0.7-2-1.1-3.3l-0.9-2.5
		h-1.3l2.7,7H160.6z M155.5,41c-0.5,0-0.9,0.1-1.2,0.3c-0.4,0.2-0.6,0.5-0.8,1v-1.1h-1.2v7h1.2v-3.8c0-0.7,0.2-1.3,0.5-1.7
		c0.3-0.4,0.8-0.7,1.2-0.7c0.3,0,0.6,0.1,0.8,0.3l0.3-1.2C156.2,41.1,155.9,41,155.5,41 M149.6,44h-3.9c0.1-0.6,0.3-1.1,0.6-1.4
		s0.8-0.6,1.3-0.6c0.5,0,1,0.2,1.3,0.5C149.4,42.9,149.6,43.4,149.6,44 M148.9,47.1c-0.3,0.2-0.6,0.3-1.1,0.3
		c-0.7,0-1.2-0.2-1.5-0.7c-0.4-0.5-0.5-1.1-0.6-1.8h5.2v-0.4c0-1-0.3-1.8-0.8-2.5c-0.5-0.7-1.3-1-2.3-1c-1,0-1.8,0.3-2.4,1
		c-0.6,0.7-0.9,1.6-0.9,2.6c0,1.1,0.3,2,0.9,2.7c0.6,0.7,1.4,1,2.4,1c1.3,0,2.3-0.6,2.9-1.8l-1.1-0.4
		C149.4,46.6,149.1,46.9,148.9,47.1 M139.5,42.2c0.3-0.2,0.6-0.3,1-0.3c0.9,0,1.5,0.4,1.6,1.3l1.2-0.3c-0.1-0.6-0.4-1.1-0.9-1.4
		c-0.5-0.4-1.1-0.5-1.9-0.5c-0.8,0-1.4,0.2-1.9,0.5c-0.5,0.4-0.8,0.9-0.8,1.5c0,0.6,0.2,1,0.6,1.4c0.4,0.3,1,0.6,1.9,0.7
		c0.7,0.1,1.2,0.2,1.4,0.4c0.3,0.2,0.4,0.4,0.4,0.7c0,0.4-0.1,0.6-0.4,0.8c-0.3,0.2-0.7,0.3-1.2,0.3c-0.5,0-0.9-0.1-1.2-0.3
		c-0.3-0.2-0.4-0.6-0.5-1.1l-1.2,0.2c0.1,0.7,0.4,1.3,0.9,1.6c0.5,0.4,1.2,0.6,2,0.6c0.9,0,1.6-0.2,2.1-0.6c0.5-0.4,0.8-0.9,0.8-1.6
		c0-0.7-0.2-1.1-0.7-1.4c-0.5-0.3-1.1-0.5-2-0.7c-0.6-0.1-1-0.2-1.3-0.4c-0.3-0.2-0.4-0.4-0.4-0.7C139.1,42.7,139.2,42.4,139.5,42.2
		 M131.7,48.2v-3.8c0-0.7,0.2-1.3,0.5-1.7c0.4-0.4,0.8-0.6,1.3-0.6c0.4,0,0.8,0.1,1.1,0.4c0.3,0.3,0.4,0.6,0.4,1.1v4.7h1.2v-4.9
		c0-0.7-0.2-1.3-0.7-1.7c-0.5-0.4-1.1-0.6-1.8-0.6c-0.9,0-1.7,0.4-2.2,1.2v-1.1h-1.2v7H131.7z M123.4,44.7c0-0.8,0.2-1.4,0.5-1.9
		c0.4-0.5,0.9-0.8,1.5-0.8c0.7,0,1.2,0.3,1.5,0.8c0.4,0.5,0.5,1.2,0.5,1.9c0,0.8-0.2,1.4-0.5,1.9c-0.4,0.5-0.9,0.8-1.5,0.8
		c-0.7,0-1.2-0.3-1.5-0.8C123.6,46.1,123.4,45.5,123.4,44.7 M122.2,44.7c0,1.1,0.3,2,0.9,2.7c0.6,0.7,1.4,1,2.5,1c1,0,1.9-0.3,2.5-1
		c0.6-0.7,0.9-1.6,0.9-2.7c0-1.1-0.3-2-0.9-2.7c-0.6-0.7-1.4-1-2.5-1c-1,0-1.9,0.3-2.5,1C122.5,42.7,122.2,43.6,122.2,44.7
		 M114,46.9c0.8,1,2,1.5,3.4,1.5c1.9,0,3.2-0.9,3.9-2.7l-1.2-0.4c-0.5,1.4-1.5,2.1-2.8,2.1c-1,0-1.8-0.4-2.4-1.2
		c-0.6-0.8-0.9-1.8-0.9-3.1c0-1.3,0.3-2.4,0.9-3.2c0.6-0.8,1.4-1.2,2.4-1.2c1.3,0,2.3,0.7,2.8,2.1l1.2-0.4c-0.8-1.8-2.1-2.7-3.9-2.7
		c-1.4,0-2.6,0.5-3.4,1.5c-0.8,1-1.3,2.3-1.3,3.9C112.8,44.6,113.2,45.9,114,46.9 M107.3,44h-3.9c0.1-0.6,0.3-1.1,0.6-1.4
		c0.3-0.4,0.8-0.6,1.3-0.6c0.5,0,1,0.2,1.3,0.5C107.1,42.9,107.2,43.4,107.3,44 M106.5,47.1c-0.3,0.2-0.6,0.3-1.1,0.3
		c-0.7,0-1.2-0.2-1.5-0.7c-0.4-0.5-0.5-1.1-0.6-1.8h5.2v-0.4c0-1-0.3-1.8-0.8-2.5c-0.5-0.7-1.3-1-2.3-1c-1,0-1.8,0.3-2.4,1
		c-0.6,0.7-0.9,1.6-0.9,2.6c0,1.1,0.3,2,0.9,2.7c0.6,0.7,1.4,1,2.4,1c1.3,0,2.3-0.6,2.9-1.8l-1.1-0.4
		C107,46.6,106.8,46.9,106.5,47.1 M101,41c-0.5,0-0.9,0.1-1.2,0.3c-0.4,0.2-0.6,0.5-0.8,1v-1.1h-1.2v7H99v-3.8
		c0-0.7,0.2-1.3,0.5-1.7c0.3-0.4,0.8-0.7,1.2-0.7c0.3,0,0.6,0.1,0.8,0.3l0.3-1.2C101.6,41.1,101.3,41,101,41 M94.4,41.2V45
		c0,0.7-0.2,1.3-0.5,1.7c-0.4,0.4-0.8,0.6-1.3,0.6c-0.4,0-0.7-0.1-1-0.4c-0.3-0.3-0.4-0.6-0.4-1.1v-4.7h-1.2v4.9
		c0,0.7,0.2,1.3,0.7,1.7c0.5,0.4,1.1,0.6,1.8,0.6c0.9,0,1.6-0.4,2.2-1.2v1.1h1.2v-7H94.4z M87.6,47.4c-0.5,0-0.7-0.3-0.7-0.8v-4.4
		h1.6v-1h-1.6v-2.6l-1.2,0.6v2h-1.2v1h1.2v4.5c0,0.5,0.2,0.9,0.5,1.2c0.3,0.3,0.8,0.5,1.3,0.5c0.5,0,0.9-0.1,1.3-0.3l-0.4-1
		C88.1,47.3,87.8,47.4,87.6,47.4 M79.3,47.1c-0.3-0.2-0.4-0.5-0.4-0.8c0-0.9,1.1-1.4,3.4-1.4v0.6c0,0.6-0.2,1-0.6,1.4
		c-0.4,0.4-0.9,0.5-1.4,0.5C79.9,47.4,79.6,47.3,79.3,47.1 M83.6,47.3v-3.8c0-0.8-0.2-1.3-0.7-1.8c-0.5-0.4-1.1-0.7-2-0.7
		c-0.8,0-1.4,0.2-2,0.6c-0.5,0.4-0.8,0.9-0.9,1.6l1.2,0.2c0-0.4,0.2-0.7,0.4-1c0.3-0.2,0.7-0.4,1.2-0.4c0.5,0,0.9,0.1,1.2,0.4
		c0.3,0.3,0.4,0.7,0.4,1.2V44c-3.1,0-4.7,0.8-4.7,2.4c0,0.6,0.2,1.1,0.6,1.4c0.4,0.4,1,0.5,1.6,0.5c1,0,1.8-0.4,2.4-1.1
		c0,0.4,0.1,0.7,0.2,0.9h1.2C83.6,47.9,83.6,47.6,83.6,47.3 M69.2,48.2v-8.4h0c1,1.6,2,3.2,3.2,4.9l2.3,3.5h1.4V37.8h-1.2v8.4h0
		c-0.1-0.2-1.2-1.9-3.1-4.9l-2.3-3.6H68v10.4H69.2z"/>
	<path fill="#1D1D1B" d="M180.7,26.2c-0.5,0-0.9,0.1-1.2,0.3c-0.4,0.2-0.6,0.5-0.8,0.9v-1.1h-1.2v7h1.2v-3.8c0-0.7,0.2-1.3,0.5-1.7
		c0.3-0.4,0.8-0.7,1.2-0.7c0.3,0,0.6,0.1,0.8,0.3l0.3-1.2C181.4,26.2,181.1,26.2,180.7,26.2 M170.5,29.9c0-0.8,0.2-1.4,0.5-1.9
		c0.4-0.5,0.9-0.8,1.5-0.8c0.7,0,1.2,0.3,1.5,0.8c0.4,0.5,0.5,1.1,0.5,1.9c0,0.8-0.2,1.4-0.5,1.9c-0.4,0.5-0.9,0.8-1.5,0.8
		c-0.7,0-1.2-0.3-1.5-0.8C170.7,31.3,170.5,30.6,170.5,29.9 M169.2,29.9c0,1.1,0.3,2,0.9,2.7c0.6,0.7,1.4,1,2.5,1c1,0,1.9-0.3,2.5-1
		c0.6-0.7,0.9-1.6,0.9-2.7c0-1.1-0.3-2-0.9-2.7c-0.6-0.7-1.4-1-2.5-1c-1,0-1.9,0.3-2.5,1C169.5,27.9,169.2,28.8,169.2,29.9
		 M165.8,27.3v6.1h1.2v-6.1h1.6v-0.9h-1.6v-1.2c0-0.4,0.1-0.7,0.3-0.9c0.2-0.2,0.5-0.3,0.8-0.3c0.4,0,0.7,0.1,1,0.4l0.5-1
		c-0.4-0.3-1-0.4-1.7-0.4c-0.6,0-1.2,0.2-1.6,0.5c-0.4,0.4-0.7,0.9-0.7,1.7v1.3h-1.2v0.9H165.8z M161.2,26.4H160l-0.9,2.5
		c-0.7,1.8-1.1,2.8-1.1,3h0c0-0.1-0.1-0.3-0.2-0.6c-0.1-0.3-0.3-0.7-0.5-1.2c-0.2-0.5-0.3-0.9-0.5-1.2c-0.1-0.3-0.3-0.7-0.5-1.3
		c-0.2-0.6-0.4-1-0.4-1.2h-1.3l2.8,7l-1.2,3h1.3L161.2,26.4z M149.1,32.5c0.6,0.7,1.4,1,2.4,1c1.3,0,2.2-0.6,2.8-1.8l-1.2-0.4
		c-0.2,0.4-0.4,0.7-0.6,0.9c-0.2,0.2-0.6,0.3-1.1,0.3c-0.6,0-1.1-0.2-1.5-0.7c-0.3-0.5-0.5-1.1-0.5-1.9c0-0.8,0.2-1.4,0.5-1.9
		c0.3-0.5,0.8-0.7,1.5-0.7c0.9,0,1.4,0.4,1.7,1.3l1.2-0.4c-0.5-1.2-1.4-1.9-2.8-1.9c-1,0-1.9,0.3-2.4,1c-0.6,0.7-0.9,1.6-0.9,2.7
		C148.2,31,148.5,31.8,149.1,32.5 M142.1,33.4v-3.8c0-0.7,0.2-1.3,0.5-1.7c0.4-0.4,0.8-0.6,1.3-0.6c0.4,0,0.8,0.1,1.1,0.4
		c0.3,0.3,0.4,0.6,0.4,1.1v4.7h1.2v-4.9c0-0.7-0.2-1.3-0.7-1.7c-0.5-0.4-1.1-0.6-1.8-0.6c-0.9,0-1.7,0.4-2.2,1.2v-1.1h-1.2v7H142.1z
		 M138.1,29.2h-3.9c0.1-0.6,0.3-1.1,0.6-1.4c0.3-0.4,0.8-0.6,1.3-0.6s1,0.2,1.3,0.5C137.9,28.1,138.1,28.5,138.1,29.2 M137.4,32.3
		c-0.3,0.2-0.6,0.3-1.1,0.3c-0.7,0-1.2-0.2-1.5-0.7c-0.4-0.5-0.5-1.1-0.6-1.8h5.2v-0.4c0-1-0.3-1.8-0.8-2.5c-0.5-0.7-1.3-1-2.3-1
		c-1,0-1.8,0.3-2.4,1c-0.6,0.7-0.9,1.6-0.9,2.6c0,1.1,0.3,2,0.9,2.7c0.6,0.7,1.4,1,2.4,1c1.3,0,2.3-0.6,2.9-1.8l-1.1-0.4
		C137.9,31.8,137.6,32.1,137.4,32.3 M130.7,33.8c0.2,0.1,0.3,0.3,0.3,0.6c0,0.4-0.2,0.7-0.7,1c-0.5,0.2-1,0.3-1.7,0.3
		c-0.6,0-1.1-0.1-1.5-0.3c-0.4-0.2-0.5-0.5-0.5-0.9c0-0.6,0.2-1,0.7-1.2l2.4,0.2C130.1,33.5,130.5,33.6,130.7,33.8 M128.7,27.1
		c0.5,0,0.9,0.1,1.2,0.4c0.3,0.3,0.5,0.7,0.5,1.2c0,0.5-0.2,0.9-0.5,1.2c-0.3,0.3-0.7,0.4-1.2,0.4c-0.5,0-0.9-0.1-1.2-0.4
		c-0.3-0.3-0.5-0.7-0.5-1.2c0-0.5,0.2-0.9,0.5-1.2C127.8,27.2,128.2,27.1,128.7,27.1 M131.7,26c-0.6,0-1.1,0.2-1.5,0.5
		c-0.5-0.2-1-0.4-1.6-0.4c-0.8,0-1.5,0.2-2,0.7c-0.6,0.5-0.8,1.1-0.8,1.9c0,0.8,0.3,1.4,0.9,1.8c-0.6,0.3-1,0.7-1,1.3
		c0,0.5,0.2,0.9,0.7,1.1c-0.3,0.1-0.5,0.4-0.7,0.6c-0.2,0.3-0.3,0.6-0.3,1c0,0.6,0.3,1.1,0.8,1.4c0.6,0.3,1.3,0.5,2.3,0.5
		c0.7,0,1.3-0.1,1.8-0.2s1-0.4,1.3-0.8c0.3-0.4,0.5-0.8,0.5-1.3c0-0.6-0.2-1-0.6-1.2c-0.4-0.3-0.9-0.5-1.7-0.5l-2-0.2
		c-0.3,0-0.6-0.1-0.7-0.2c-0.1-0.1-0.2-0.2-0.2-0.4c0-0.2,0.1-0.3,0.2-0.4c0.1-0.1,0.3-0.2,0.5-0.2c0,0,0.2,0,0.4,0.1
		c0.3,0,0.5,0.1,0.7,0.1c0.8,0,1.5-0.2,2-0.7c0.6-0.4,0.8-1.1,0.8-1.8c0-0.7-0.2-1.2-0.6-1.6c0.1-0.1,0.4-0.2,0.7-0.2
		s0.5,0.1,0.6,0.2l0.2-0.9C132.3,26.1,132,26,131.7,26 M121.5,27.4l0.7,2.1h-3.4l0.7-2.1c0.5-1.3,0.8-2.3,0.9-2.8h0
		C120.6,24.9,120.9,25.8,121.5,27.4 M120,23l-3.8,10.4h1.3l1-2.8h4.1l1,2.8h1.4L121.1,23H120z M111.8,23h-1.2v10.4h1.2V23z
		 M104.4,32.3c-0.3-0.2-0.4-0.5-0.4-0.8c0-0.9,1.1-1.4,3.4-1.4v0.6c0,0.6-0.2,1-0.6,1.4c-0.4,0.4-0.9,0.5-1.4,0.5
		C105,32.6,104.6,32.5,104.4,32.3 M108.6,32.4v-3.8c0-0.8-0.2-1.3-0.7-1.8c-0.5-0.4-1.1-0.7-2-0.7c-0.8,0-1.4,0.2-2,0.6
		c-0.5,0.4-0.8,0.9-0.9,1.6l1.2,0.2c0-0.4,0.2-0.7,0.4-1c0.3-0.2,0.7-0.4,1.2-0.4c0.5,0,0.9,0.1,1.2,0.4c0.3,0.3,0.4,0.7,0.4,1.2
		v0.4c-3.1,0-4.7,0.8-4.7,2.4c0,0.6,0.2,1.1,0.6,1.4c0.4,0.4,1,0.5,1.6,0.5c1,0,1.8-0.4,2.4-1.1c0,0.4,0.1,0.7,0.2,0.9h1.2
		C108.7,33.1,108.6,32.8,108.6,32.4 M101.6,26.2c-0.5,0-0.9,0.1-1.2,0.3c-0.4,0.2-0.6,0.5-0.8,0.9v-1.1h-1.2v7h1.2v-3.8
		c0-0.7,0.2-1.3,0.5-1.7c0.3-0.4,0.8-0.7,1.2-0.7c0.3,0,0.6,0.1,0.8,0.3l0.3-1.2C102.2,26.2,101.9,26.2,101.6,26.2 M95.7,29.2h-3.9
		c0.1-0.6,0.3-1.1,0.6-1.4c0.3-0.4,0.8-0.6,1.3-0.6c0.5,0,1,0.2,1.3,0.5C95.4,28.1,95.6,28.5,95.7,29.2 M94.9,32.3
		c-0.3,0.2-0.6,0.3-1.1,0.3c-0.7,0-1.2-0.2-1.5-0.7c-0.4-0.5-0.5-1.1-0.6-1.8h5.2v-0.4c0-1-0.3-1.8-0.8-2.5c-0.5-0.7-1.3-1-2.3-1
		c-1,0-1.8,0.3-2.4,1c-0.6,0.7-0.9,1.6-0.9,2.6c0,1.1,0.3,2,0.9,2.7c0.6,0.7,1.4,1,2.4,1c1.3,0,2.3-0.6,2.9-1.8l-1.1-0.4
		C95.4,31.8,95.2,32.1,94.9,32.3 M87.5,31.4c-0.1,0.3-0.3,0.5-0.5,0.7c-0.2,0.1-0.4,0.3-0.7,0.3c-0.2,0.1-0.4,0.1-0.7,0.1
		c-0.6,0-1.1-0.2-1.5-0.7c-0.4-0.5-0.6-1.1-0.6-1.9c0-0.8,0.2-1.4,0.6-1.9c0.4-0.5,0.9-0.7,1.5-0.7c0.2,0,0.5,0,0.7,0.1
		c0.2,0.1,0.4,0.2,0.7,0.3c0.2,0.1,0.4,0.4,0.5,0.7c0.1,0.3,0.2,0.6,0.2,1v1C87.7,30.8,87.6,31.1,87.5,31.4 M83.2,27.2
		c-0.6,0.7-0.9,1.6-0.9,2.7c0,1.1,0.3,2,0.9,2.7c0.6,0.7,1.4,1,2.3,1c1,0,1.8-0.4,2.3-1.2v1.1h1.2V23h-1.2v4.3
		c-0.6-0.7-1.3-1.1-2.2-1.1C84.5,26.2,83.8,26.5,83.2,27.2 M80,29.2h-3.9c0.1-0.6,0.3-1.1,0.6-1.4c0.3-0.4,0.8-0.6,1.3-0.6
		c0.5,0,1,0.2,1.3,0.5C79.8,28.1,80,28.5,80,29.2 M79.3,32.3c-0.3,0.2-0.6,0.3-1.1,0.3c-0.7,0-1.2-0.2-1.5-0.7
		c-0.4-0.5-0.5-1.1-0.6-1.8h5.2v-0.4c0-1-0.3-1.8-0.8-2.5c-0.5-0.7-1.3-1-2.3-1c-1,0-1.8,0.3-2.4,1c-0.6,0.7-0.9,1.6-0.9,2.6
		c0,1.1,0.3,2,0.9,2.7c0.6,0.7,1.4,1,2.4,1c1.3,0,2.3-0.6,2.9-1.8L80,31.3C79.8,31.8,79.5,32.1,79.3,32.3 M69.3,28.5h4.5v-1h-4.5V24
		h4.8v-1H68v10.4h1.3V28.5z"/>
</g>
</svg>
