<?xml version="1.0" encoding="UTF-8" standalone="no"?>
<!DOCTYPE svg PUBLIC "-//W3C//DTD SVG 1.1//EN" "http://www.w3.org/Graphics/SVG/1.1/DTD/svg11.dtd">
<svg xmlns="http://www.w3.org/2000/svg" xmlns:xlink="http://www.w3.org/1999/xlink" version="1.1" width="184pt" height="252pt" viewBox="0 0 184 252">
<g enable-background="new">
<path transform="matrix(1,0,0,-1,0,252)" d="M -0 0 L 184.5 0 L 184.5 252 L -0 252 Z " fill="#ffffff"/>
<path transform="matrix(1,0,0,-1,0,252)" stroke-width="1.94" stroke-linecap="round" stroke-linejoin="round" fill="none" stroke="#ffffff" d="M -0 0 L 184.5 0 L 184.5 252 L -0 252 Z "/>
<clipPath id="cp0">
<path transform="matrix(1,0,0,-1,0,252)" d="M 64.51 56.76 L 174.54001 56.76 L 174.54001 242.04 L 64.51 242.04 Z "/>
</clipPath>
<g clip-path="url(#cp0)">
<path transform="matrix(1,0,0,-1,0,252)" d="M 64.51 56.76 L 174.54001 56.76 L 174.54001 242.04 L 64.51 242.04 Z " fill="#ffffff"/>
<path transform="matrix(1,0,0,-1,0,252)" stroke-width=".97" stroke-linecap="butt" stroke-linejoin="round" fill="none" stroke="#ebebeb" d="M 64.51 121.56 L 174.54 121.56 "/>
<path transform="matrix(1,0,0,-1,0,252)" stroke-width=".97" stroke-linecap="butt" stroke-linejoin="round" fill="none" stroke="#ebebeb" d="M 64.51 156.74 L 174.54 156.74 "/>
<path transform="matrix(1,0,0,-1,0,252)" stroke-width=".97" stroke-linecap="butt" stroke-linejoin="round" fill="none" stroke="#ebebeb" d="M 64.51 180.96 L 174.54 180.96 "/>
<path transform="matrix(1,0,0,-1,0,252)" stroke-width=".97" stroke-linecap="butt" stroke-linejoin="round" fill="none" stroke="#ebebeb" d="M 64.51 200.65 L 174.54 200.65 "/>
<path transform="matrix(1,0,0,-1,0,252)" stroke-width=".97" stroke-linecap="butt" stroke-linejoin="round" fill="none" stroke="#ebebeb" d="M 64.51 217.68 L 174.54 217.68 "/>
<path transform="matrix(1,0,0,-1,0,252)" stroke-width="1.94" stroke-linecap="butt" stroke-linejoin="round" fill="none" stroke="#ebebeb" d="M 64.51 73.5 L 174.54 73.5 "/>
<path transform="matrix(1,0,0,-1,0,252)" stroke-width="1.94" stroke-linecap="butt" stroke-linejoin="round" fill="none" stroke="#ebebeb" d="M 64.51 141.47 L 174.54 141.47 "/>
<path transform="matrix(1,0,0,-1,0,252)" stroke-width="1.94" stroke-linecap="butt" stroke-linejoin="round" fill="none" stroke="#ebebeb" d="M 64.51 169.62 L 174.54 169.62 "/>
<path transform="matrix(1,0,0,-1,0,252)" stroke-width="1.94" stroke-linecap="butt" stroke-linejoin="round" fill="none" stroke="#ebebeb" d="M 64.51 191.22 L 174.54 191.22 "/>
<path transform="matrix(1,0,0,-1,0,252)" stroke-width="1.94" stroke-linecap="butt" stroke-linejoin="round" fill="none" stroke="#ebebeb" d="M 64.51 209.43 L 174.54 209.43 "/>
<path transform="matrix(1,0,0,-1,0,252)" stroke-width="1.94" stroke-linecap="butt" stroke-linejoin="round" fill="none" stroke="#ebebeb" d="M 64.51 225.48 L 174.54 225.48 "/>
<path transform="matrix(1,0,0,-1,0,252)" stroke-width="1.94" stroke-linecap="butt" stroke-linejoin="round" fill="none" stroke="#ebebeb" d="M 94.52 56.76 L 94.52 242.04 "/>
<path transform="matrix(1,0,0,-1,0,252)" stroke-width="1.94" stroke-linecap="butt" stroke-linejoin="round" fill="none" stroke="#ebebeb" d="M 144.53 56.76 L 144.53 242.04 "/>
<path transform="matrix(1,0,0,-1,0,252)" stroke-width="17.07" stroke-linecap="butt" stroke-linejoin="round" fill="none" stroke="#8b8682" stroke-opacity=".4" d="M 94.52 126.33 L 94.52 139.86 "/>
<path transform="matrix(1,0,0,-1,0,252)" stroke-width="17.07" stroke-linecap="butt" stroke-linejoin="round" fill="none" stroke="#8b8682" stroke-opacity=".4" d="M 144.53 93.05 L 144.53 117.92 "/>
<text fill="#8b8682" xml:space="preserve" transform="matrix(0 -1 1 0 0 252)" font-size="43" font-family="Helvetica"><tspan y="105.01" x="127.41">|</tspan></text>
<text fill="#8b8682" xml:space="preserve" transform="matrix(0 -1 1 0 0 252)" font-size="43" font-family="Helvetica"><tspan y="155.03" x="98.29">|</tspan></text>
<path transform="matrix(1,0,0,-1,0,252)" d="M 80.85 65.95 L 108.19 65.95 L 108.1 65.96 L 108.45 65.97 L 108.79 66.04 L 109.12 66.16 L 109.42 66.34 L 109.69 66.56 L 109.92 66.82 L 110.1 67.11 L 110.24 67.43 L 110.32 67.77 L 110.35 68.11 L 110.35 78.89 L 110.32 79.24 L 110.24 79.58 L 110.1 79.9 L 109.92 80.19 L 109.69 80.45 L 109.42 80.67 L 109.12 80.84 L 108.79 80.97 L 108.45 81.04 L 108.19 81.05 L 80.85 81.05 L 81.11 81.04 L 80.76 81.05 L 80.41 81.01 L 80.08 80.91 L 79.77 80.76 L 79.48 80.57 L 79.23 80.33 L 79.02 80.05 L 78.86 79.74 L 78.75 79.41 L 78.69 79.07 L 78.69 78.89 L 78.69 68.11 L 78.69 68.29 L 78.69 67.94 L 78.75 67.6 L 78.86 67.27 L 79.02 66.96 L 79.23 66.68 L 79.48 66.44 L 79.77 66.24 L 80.08 66.1 L 80.41 66 L 80.76 65.96 Z " fill="#ffffff"/>
</g>
<clipPath id="cp1">
<path transform="matrix(1,0,0,-1,0,252)" d="M 64.51 56.76 L 174.54001 56.76 L 174.54001 242.04 L 64.51 242.04 Z "/>
</clipPath>
<g clip-path="url(#cp1)">
<text xml:space="preserve" transform="matrix(1 0 -0 1 0 252)" font-size="11" font-family="Helvetica"><tspan y="-69.55" x="82.29 88.406 94.521999 100.63799">1248</tspan></text>
<path transform="matrix(1,0,0,-1,0,252)" d="M 80.85 65.95 L 108.19 65.95 L 108.1 65.96 L 108.45 65.97 L 108.79 66.04 L 109.12 66.16 L 109.42 66.34 L 109.69 66.56 L 109.92 66.82 L 110.1 67.11 L 110.24 67.43 L 110.32 67.77 L 110.35 68.11 L 110.35 78.89 L 110.32 79.24 L 110.24 79.58 L 110.1 79.9 L 109.92 80.19 L 109.69 80.45 L 109.42 80.67 L 109.12 80.84 L 108.79 80.97 L 108.45 81.04 L 108.19 81.05 L 80.85 81.05 L 81.11 81.04 L 80.76 81.05 L 80.41 81.01 L 80.08 80.91 L 79.77 80.76 L 79.48 80.57 L 79.23 80.33 L 79.02 80.05 L 78.86 79.74 L 78.75 79.41 L 78.69 79.07 L 78.69 78.89 L 78.69 68.11 L 78.69 68.29 L 78.69 67.94 L 78.75 67.6 L 78.86 67.27 L 79.02 66.96 L 79.23 66.68 L 79.48 66.44 L 79.77 66.24 L 80.08 66.1 L 80.41 66 L 80.76 65.96 Z " fill="#ffffff"/>
</g>
<clipPath id="cp2">
<path transform="matrix(1,0,0,-1,0,252)" d="M 64.51 56.76 L 174.54001 56.76 L 174.54001 242.04 L 64.51 242.04 Z "/>
</clipPath>
<g clip-path="url(#cp2)">
<text xml:space="preserve" transform="matrix(1 0 -0 1 0 252)" font-size="11" font-family="Helvetica"><tspan y="-69.55" x="82.29 88.406 94.521999 100.63799">1248</tspan></text>
<path transform="matrix(1,0,0,-1,0,252)" d="M 133.92 65.95 L 155.14 65.95 L 155.06 65.96 L 155.4 65.97 L 155.74 66.04 L 156.07 66.16 L 156.37 66.34 L 156.64 66.56 L 156.87 66.82 L 157.06 67.11 L 157.19 67.43 L 157.28 67.77 L 157.3 68.11 L 157.3 78.89 L 157.28 79.24 L 157.19 79.58 L 157.06 79.9 L 156.87 80.19 L 156.64 80.45 L 156.37 80.67 L 156.07 80.84 L 155.74 80.97 L 155.4 81.04 L 155.14 81.05 L 133.92 81.05 L 134.18 81.04 L 133.83 81.05 L 133.48 81.01 L 133.15 80.91 L 132.84 80.76 L 132.55 80.57 L 132.3 80.33 L 132.09 80.05 L 131.93 79.74 L 131.82 79.41 L 131.76 79.07 L 131.76 78.89 L 131.76 68.11 L 131.76 68.29 L 131.76 67.94 L 131.82 67.6 L 131.93 67.27 L 132.09 66.96 L 132.3 66.68 L 132.55 66.44 L 132.84 66.24 L 133.15 66.1 L 133.48 66 L 133.83 65.96 Z " fill="#ffffff"/>
</g>
<clipPath id="cp3">
<path transform="matrix(1,0,0,-1,0,252)" d="M 64.51 56.76 L 174.54001 56.76 L 174.54001 242.04 L 64.51 242.04 Z "/>
</clipPath>
<g clip-path="url(#cp3)">
<text xml:space="preserve" transform="matrix(1 0 -0 1 0 252)" font-size="11" font-family="Helvetica"><tspan y="-69.55" x="135.36 141.476 147.592">205</tspan></text>
<path transform="matrix(1,0,0,-1,0,252)" d="M 133.92 65.95 L 155.14 65.95 L 155.06 65.96 L 155.4 65.97 L 155.74 66.04 L 156.07 66.16 L 156.37 66.34 L 156.64 66.56 L 156.87 66.82 L 157.06 67.11 L 157.19 67.43 L 157.28 67.77 L 157.3 68.11 L 157.3 78.89 L 157.28 79.24 L 157.19 79.58 L 157.06 79.9 L 156.87 80.19 L 156.64 80.45 L 156.37 80.67 L 156.07 80.84 L 155.74 80.97 L 155.4 81.04 L 155.14 81.05 L 133.92 81.05 L 134.18 81.04 L 133.83 81.05 L 133.48 81.01 L 133.15 80.91 L 132.84 80.76 L 132.55 80.57 L 132.3 80.33 L 132.09 80.05 L 131.93 79.74 L 131.82 79.41 L 131.76 79.07 L 131.76 78.89 L 131.76 68.11 L 131.76 68.29 L 131.76 67.94 L 131.82 67.6 L 131.93 67.27 L 132.09 66.96 L 132.3 66.68 L 132.55 66.44 L 132.84 66.24 L 133.15 66.1 L 133.48 66 L 133.83 65.96 Z " fill="#ffffff"/>
</g>
<clipPath id="cp4">
<path transform="matrix(1,0,0,-1,0,252)" d="M 64.51 56.76 L 174.54001 56.76 L 174.54001 242.04 L 64.51 242.04 Z "/>
</clipPath>
<g clip-path="url(#cp4)">
<text xml:space="preserve" transform="matrix(1 0 -0 1 0 252)" font-size="11" font-family="Helvetica"><tspan y="-69.55" x="135.36 141.476 147.592">205</tspan></text>
<path transform="matrix(1,0,0,-1,0,252)" d="M 83.9 217.93 L 105.13 217.93 L 105.04 217.93 L 105.39 217.94 L 105.73 218.01 L 106.06 218.13 L 106.36 218.31 L 106.63 218.53 L 106.86 218.79 L 107.04 219.08 L 107.18 219.4 L 107.26 219.74 L 107.29 220.09 L 107.29 230.86 L 107.26 231.21 L 107.18 231.55 L 107.04 231.87 L 106.86 232.16 L 106.63 232.42 L 106.36 232.64 L 106.06 232.82 L 105.73 232.94 L 105.39 233.01 L 105.13 233.02 L 83.9 233.02 L 84.16 233.01 L 83.82 233.02 L 83.47 232.98 L 83.14 232.88 L 82.82 232.73 L 82.54 232.54 L 82.29 232.3 L 82.08 232.02 L 81.92 231.71 L 81.81 231.38 L 81.75 231.04 L 81.74 230.86 L 81.74 220.09 L 81.75 220.26 L 81.75 219.91 L 81.81 219.57 L 81.92 219.24 L 82.08 218.93 L 82.29 218.65 L 82.54 218.41 L 82.82 218.22 L 83.14 218.07 L 83.47 217.97 L 83.82 217.93 Z " fill="#ffffff"/>
</g>
<clipPath id="cp5">
<path transform="matrix(1,0,0,-1,0,252)" d="M 64.51 56.76 L 174.54001 56.76 L 174.54001 242.04 L 64.51 242.04 Z "/>
</clipPath>
<g clip-path="url(#cp5)">
<text xml:space="preserve" transform="matrix(1 0 -0 1 0 252)" font-size="11" font-family="Helvetica"><tspan y="-221.53" x="85.34 91.45599 97.57199">161</tspan></text>
<path transform="matrix(1,0,0,-1,0,252)" d="M 83.9 217.93 L 105.13 217.93 L 105.04 217.93 L 105.39 217.94 L 105.73 218.01 L 106.06 218.13 L 106.36 218.31 L 106.63 218.53 L 106.86 218.79 L 107.04 219.08 L 107.18 219.4 L 107.26 219.74 L 107.29 220.09 L 107.29 230.86 L 107.26 231.21 L 107.18 231.55 L 107.04 231.87 L 106.86 232.16 L 106.63 232.42 L 106.36 232.64 L 106.06 232.82 L 105.73 232.94 L 105.39 233.01 L 105.13 233.02 L 83.9 233.02 L 84.16 233.01 L 83.82 233.02 L 83.47 232.98 L 83.14 232.88 L 82.82 232.73 L 82.54 232.54 L 82.29 232.3 L 82.08 232.02 L 81.92 231.71 L 81.81 231.38 L 81.75 231.04 L 81.74 230.86 L 81.74 220.09 L 81.75 220.26 L 81.75 219.91 L 81.81 219.57 L 81.92 219.24 L 82.08 218.93 L 82.29 218.65 L 82.54 218.41 L 82.82 218.22 L 83.14 218.07 L 83.47 217.97 L 83.82 217.93 Z " fill="#ffffff"/>
</g>
<clipPath id="cp6">
<path transform="matrix(1,0,0,-1,0,252)" d="M 64.51 56.76 L 174.54001 56.76 L 174.54001 242.04 L 64.51 242.04 Z "/>
</clipPath>
<g clip-path="url(#cp6)">
<text xml:space="preserve" transform="matrix(1 0 -0 1 0 252)" font-size="11" font-family="Helvetica"><tspan y="-221.53" x="85.34 91.45599 97.57199">161</tspan></text>
<path transform="matrix(1,0,0,-1,0,252)" d="M 136.97 217.93 L 152.09 217.93 L 152 217.93 L 152.35 217.94 L 152.69 218.01 L 153.01 218.13 L 153.31 218.31 L 153.58 218.53 L 153.81 218.79 L 154 219.08 L 154.13 219.4 L 154.22 219.74 L 154.25 220.09 L 154.25 230.86 L 154.22 231.21 L 154.13 231.55 L 154 231.87 L 153.81 232.16 L 153.58 232.42 L 153.31 232.64 L 153.01 232.82 L 152.69 232.94 L 152.35 233.01 L 152.09 233.02 L 136.97 233.02 L 137.23 233.01 L 136.89 233.02 L 136.54 232.98 L 136.21 232.88 L 135.89 232.73 L 135.61 232.54 L 135.36 232.3 L 135.15 232.02 L 134.99 231.71 L 134.88 231.38 L 134.82 231.04 L 134.81 230.86 L 134.81 220.09 L 134.82 220.26 L 134.82 219.91 L 134.88 219.57 L 134.99 219.24 L 135.15 218.93 L 135.36 218.65 L 135.61 218.41 L 135.89 218.22 L 136.21 218.07 L 136.54 217.97 L 136.89 217.93 Z " fill="#ffffff"/>
</g>
<clipPath id="cp7">
<path transform="matrix(1,0,0,-1,0,252)" d="M 64.51 56.76 L 174.54001 56.76 L 174.54001 242.04 L 64.51 242.04 Z "/>
</clipPath>
<g clip-path="url(#cp7)">
<text xml:space="preserve" transform="matrix(1 0 -0 1 0 252)" font-size="11" font-family="Helvetica"><tspan y="-221.53" x="138.41 144.526">23</tspan></text>
<path transform="matrix(1,0,0,-1,0,252)" d="M 136.97 217.93 L 152.09 217.93 L 152 217.93 L 152.35 217.94 L 152.69 218.01 L 153.01 218.13 L 153.31 218.31 L 153.58 218.53 L 153.81 218.79 L 154 219.08 L 154.13 219.4 L 154.22 219.74 L 154.25 220.09 L 154.25 230.86 L 154.22 231.21 L 154.13 231.55 L 154 231.87 L 153.81 232.16 L 153.58 232.42 L 153.31 232.64 L 153.01 232.82 L 152.69 232.94 L 152.35 233.01 L 152.09 233.02 L 136.97 233.02 L 137.23 233.01 L 136.89 233.02 L 136.54 232.98 L 136.21 232.88 L 135.89 232.73 L 135.61 232.54 L 135.36 232.3 L 135.15 232.02 L 134.99 231.71 L 134.88 231.38 L 134.82 231.04 L 134.81 230.86 L 134.81 220.09 L 134.82 220.26 L 134.82 219.91 L 134.88 219.57 L 134.99 219.24 L 135.15 218.93 L 135.36 218.65 L 135.61 218.41 L 135.89 218.22 L 136.21 218.07 L 136.54 217.97 L 136.89 217.93 Z " fill="#ffffff"/>
</g>
<clipPath id="cp8">
<path transform="matrix(1,0,0,-1,0,252)" d="M 64.51 56.76 L 174.54001 56.76 L 174.54001 242.04 L 64.51 242.04 Z "/>
</clipPath>
<g clip-path="url(#cp8)">
<text xml:space="preserve" transform="matrix(1 0 -0 1 0 252)" font-size="11" font-family="Helvetica"><tspan y="-221.53" x="138.41 144.526">23</tspan></text>
<path transform="matrix(1,0,0,-1,0,252)" stroke-width="1.94" stroke-linecap="round" stroke-linejoin="round" fill="none" stroke="#333333" d="M 64.51 56.76 L 174.54001 56.76 L 174.54001 242.04 L 64.51 242.04 Z "/>
</g>
<text fill="#4d4d4d" xml:space="preserve" transform="matrix(1 0 -0 1 0 252)" font-size="16" font-family="Helvetica"><tspan y="-67.76" x="33.3 42.196 46.644">0.0</tspan></text>
<text fill="#4d4d4d" xml:space="preserve" transform="matrix(1 0 -0 1 0 252)" font-size="16" font-family="Helvetica"><tspan y="-135.72" x="33.3 42.196 46.644">0.2</tspan></text>
<text fill="#4d4d4d" xml:space="preserve" transform="matrix(1 0 -0 1 0 252)" font-size="16" font-family="Helvetica"><tspan y="-163.87" x="33.3 42.196 46.644">0.4</tspan></text>
<text fill="#4d4d4d" xml:space="preserve" transform="matrix(1 0 -0 1 0 252)" font-size="16" font-family="Helvetica"><tspan y="-185.48" x="33.3 42.196 46.644">0.6</tspan></text>
<text fill="#4d4d4d" xml:space="preserve" transform="matrix(1 0 -0 1 0 252)" font-size="16" font-family="Helvetica"><tspan y="-203.69" x="33.3 42.196 46.644">0.8</tspan></text>
<text fill="#4d4d4d" xml:space="preserve" transform="matrix(1 0 -0 1 0 252)" font-size="16" font-family="Helvetica"><tspan y="-219.73" x="33.3 42.196 46.644">1.0</tspan></text>
<path transform="matrix(1,0,0,-1,0,252)" stroke-width="1.94" stroke-linecap="butt" stroke-linejoin="round" fill="none" stroke="#333333" d="M 59.53 73.5 L 64.51 73.5 "/>
<path transform="matrix(1,0,0,-1,0,252)" stroke-width="1.94" stroke-linecap="butt" stroke-linejoin="round" fill="none" stroke="#333333" d="M 59.53 141.47 L 64.51 141.47 "/>
<path transform="matrix(1,0,0,-1,0,252)" stroke-width="1.94" stroke-linecap="butt" stroke-linejoin="round" fill="none" stroke="#333333" d="M 59.53 169.62 L 64.51 169.62 "/>
<path transform="matrix(1,0,0,-1,0,252)" stroke-width="1.94" stroke-linecap="butt" stroke-linejoin="round" fill="none" stroke="#333333" d="M 59.53 191.22 L 64.51 191.22 "/>
<path transform="matrix(1,0,0,-1,0,252)" stroke-width="1.94" stroke-linecap="butt" stroke-linejoin="round" fill="none" stroke="#333333" d="M 59.53 209.43 L 64.51 209.43 "/>
<path transform="matrix(1,0,0,-1,0,252)" stroke-width="1.94" stroke-linecap="butt" stroke-linejoin="round" fill="none" stroke="#333333" d="M 59.53 225.48 L 64.51 225.48 "/>
<path transform="matrix(1,0,0,-1,0,252)" stroke-width="1.94" stroke-linecap="butt" stroke-linejoin="round" fill="none" stroke="#333333" d="M 94.52 51.78 L 94.52 56.76 "/>
<path transform="matrix(1,0,0,-1,0,252)" stroke-width="1.94" stroke-linecap="butt" stroke-linejoin="round" fill="none" stroke="#333333" d="M 144.53 51.78 L 144.53 56.76 "/>
<text fill="#4d4d4d" xml:space="preserve" transform="matrix(1 0 -0 1 0 252)" font-size="16" font-family="Helvetica"><tspan y="-36.3" x="70.14 79.036 87.93201 92.380008 97.548007 106.44401 109.99601">no rain</tspan></text>
<text fill="#4d4d4d" xml:space="preserve" transform="matrix(1 0 -0 1 0 252)" font-size="16" font-family="Helvetica"><tspan y="-36.3" x="131.27 136.438 145.334 148.886">rain</tspan></text>
<text xml:space="preserve" transform="matrix(1 0 -0 1 0 252)" font-size="20" font-family="Helvetica"><tspan y="-13.96" x="65.61 76.73 83.39 94.51 104.51 108.950008 120.07001 124.51001 130.07 141.19 146.75 151.19 162.31">precipitation</tspan></text>
<text xml:space="preserve" transform="matrix(0 -1 1 0 0 252)" font-size="20" font-family="Helvetica"><tspan y="24.32" x="57.85 68.97 80.090007 91.21001 102.33001 109.79001 115.350009 126.47001 133.13 144.25 149.81 160.93 167.59 178.70999 189.82999 200.94998 212.06998 216.50998 220.94998 225.38999 230.94998">departure probability</tspan></text>
</g>
</svg>
