<?xml version="1.0" encoding="UTF-8"?>
<svg xmlns="http://www.w3.org/2000/svg" viewBox="0 0 1279.98 568.54">
  <defs>
    <style>
      .cls-1 {
        fill: #81bde8;
      }

      .cls-2 {
        fill: #84bde8;
      }

      .cls-3 {
        fill: #2e3192;
      }

      .cls-4 {
        fill: #0071bc;
      }

      .cls-5 {
        fill: #29abe2;
      }
    </style>
  </defs>
  <g id="Lines">
    <path class="cls-4" d="m147.39,503.98c7.72-77.8,15.44-155.6,23.16-233.39,2.21-22.23,4.41-44.46,6.62-66.68l-2.9.55c5.46,36.2,10.93,72.4,16.39,108.6.78,5.13,1.55,10.27,2.33,15.4.18,1.16,2.69.26,2.9-.55,4.82-18.33,9.64-36.67,14.46-55l-2.79.75c10.57,9.88,21.14,19.76,31.71,29.65,1.76,1.65,3.68,3.22,5.33,4.99,4.39,4.69,7.85,10.71,11.61,15.92,11.22,15.56,22.44,31.12,33.66,46.67.53.73,2.02.15,2.52-.3,11.13-10.08,22.26-20.15,33.39-30.23l-2.63.1c9.2,35.38,18.41,70.76,27.61,106.14,1.29,4.95,2.58,9.9,3.86,14.86.28,1.09,2.76.36,2.9-.55,11.8-73.64,23.6-147.28,35.4-220.92l-2.9.55c3.34,25.81,7.17,51.55,11.51,77.21,4.71,27.92,9.36,56.09,16.41,83.54,1.57,6.12,3.17,12.48,6,18.16,1.17,2.35,2.73,5.14,5.42,5.97,5.07,1.56,9-3.88,11.16-7.57,3.89-6.66,6.39-14.21,8.68-21.53,2.01-6.4,3.75-12.87,5.38-19.38,1.06-4.23,2.06-8.48,3.02-12.73.55-2.43.89-4.39,2.76-6.14s4.34-3.06,6.38-4.5l-2.37-.11c6.49,16.75,13.14,33.89,22.49,49.31,2.84,4.69,6.96,12.1,12.84,13.57,7.4,1.85,9.7-7.34,11.43-12.54,3.11-9.35,6.64-18.46,11.21-27.2,4.57-8.74,9.34-18.37,16.5-25.31,3.69-3.58,8.48-6.58,13.6-3.97,4.24,2.16,7.33,6.81,10.02,10.56,6.48,9.02,12.39,18.49,17.76,28.21,3.7,6.7,7.01,13.59,10.58,20.36,2.15,4.09,4.38,8.39,7.72,11.65,8.61,8.43,20.06,4.26,28.91-1.49,18.15-11.79,34.97-27.11,48.92-43.62,8.61-10.19,15.48-22.45,25.12-31.71s19.82-4.91,27.23,4.16c8.37,10.25,13.44,22.89,22.78,32.41,8.89,9.08,21.39,12.88,33.52,8.24,12.99-4.97,21.93-16.6,32.99-24.52,6.74-4.83,14.37-8.22,22.82-7.56,8.32.66,15.33,4.91,21.19,10.63,8.9,8.69,16.23,21.68,29.56,23.85,13.9,2.27,24.1-7.21,32.46-16.95,9.58-11.15,21.55-24.85,37.55-15.9,12.15,6.79,17.94,20.76,29.19,28.66,10.59,7.43,22.87,4.42,32.11-3.6,5.51-4.78,9.96-10.62,14.84-16,4.59-5.07,9.97-10.71,16.94-12.16,10.1-2.11,18.79,5.48,24.6,12.8.67.85,3.46-.19,2.68-1.17-9.14-11.53-23.09-18.31-36.41-9.35-11.56,7.78-17.8,21.48-29.7,28.82-15.49,9.56-27.37-4.13-36.62-15.15-8.11-9.67-17.81-19.48-31.58-17.21s-21.13,14.64-29.62,23.85c-5.19,5.62-11.37,11.08-19.33,11.81s-14.43-2.95-19.92-8.24c-9.72-9.38-17.06-21.86-30.97-25.49s-26.26,2.71-36.71,11.31-21.98,22.57-37.27,21.84-24.35-14.28-31.63-25.92c-5.69-9.1-11.76-21.73-22.75-25.34-8.94-2.94-16.85,1.56-22.7,8.11-9.72,10.87-17.38,23.41-27.16,34.28-7.56,8.41-15.81,16.13-24.56,23.29-8.16,6.68-16.68,14.59-26.51,18.77-12.94,5.5-19.91-4.49-25.18-14.62-8.38-16.09-16.69-31.96-27.18-46.83-4.08-5.79-9.2-13.81-17.25-13.61-6.47.16-11.68,4.98-15.55,9.7-11.73,14.31-19.32,32.54-25.12,49.94-.87,2.62-2.34,10.25-5.82,10.66-1.87.22-3.95-1.72-5.16-2.87-8.03-7.62-12.88-19.25-17.4-29.08s-8.65-20-12.58-30.16c-.33-.85-1.82-.49-2.37-.11-2.49,1.75-6.63,3.63-8.51,6-1.48,1.87-1.56,5.32-2.1,7.66-1.48,6.47-3.05,12.92-4.79,19.32-2.34,8.63-4.88,17.3-8.44,25.52-1.63,3.77-3.46,7.95-6.35,10.95-1.12,1.16-2.29,2.01-3.19,1.82-2.59-.56-4.11-3.9-5.11-6.03-2.63-5.63-4.19-11.8-5.72-17.79-6.54-25.68-10.96-51.99-15.44-78.09s-8.8-54.71-12.35-82.18c-.14-1.1-2.76-.33-2.9.55-11.8,73.64-23.6,147.28-35.4,220.92l2.9-.55c-9.2-35.38-18.41-70.76-27.61-106.14-1.29-4.95-2.58-9.9-3.86-14.86-.27-1.03-2.15-.34-2.63.1-11.13,10.08-22.26,20.15-33.39,30.23l2.52-.3c-11.04-15.31-22.09-30.62-33.13-45.93-3.93-5.46-7.56-11.76-12.15-16.66-1.65-1.76-3.57-3.34-5.33-4.99-10.57-9.88-21.14-19.76-31.71-29.65-.71-.66-2.54-.22-2.79.75-4.82,18.33-9.64,36.67-14.46,55l2.9-.55c-5.46-36.2-10.93-72.4-16.39-108.6-.78-5.13-1.55-10.27-2.33-15.4-.16-1.07-2.81-.36-2.9.55-7.72,77.8-15.44,155.6-23.16,233.39-2.21,22.23-4.41,44.46-6.62,66.68-.12,1.26,2.8.75,2.91-.32h0Z"/>
    <path class="cls-3" d="m146.83,289.2c10.57-5.9,21.13-11.79,31.7-17.69l-2.35-.05c15.03,34.92,30.07,69.85,45.1,104.77.46,1.07,2.56.2,2.9-.57,14.98-33.85,29.95-67.69,44.93-101.54l-2.9.57c6.39,63.59,12.77,127.18,19.16,190.77.11,1.06,2.69.18,2.9-.57,5.79-21.16,11.58-42.31,17.37-63.47,2.37-8.66,5.11-17.3,7.13-26.05,2.39-10.35,3.24-21.28,4.81-31.8,2.19-14.7,4.38-29.39,6.57-44.09,4.93-33.07,9.86-66.14,14.78-99.2l-2.9.57c13.54,34.15,27.09,68.31,40.63,102.46.41,1.04,2.34.2,2.8-.35,12.11-14.45,22.67-30.18,30.83-47.19,6.23-12.98,11.36-26.51,16.37-40,8.51-22.94,15.6-46.35,23.86-69.35.75-2.08,1.55-4.13,2.61-6.07.79-1.44.65-2,1.89-1.27s1.89,3.63,2.29,4.93c1.93,6.35,2.71,13.1,3.6,19.65,2.89,21.5,5.13,43.07,8.1,64.56,3.98,28.8,7.75,58.17,15.6,86.23,1.9,6.78,4.3,18.74,11.28,22.54,3.33,1.81,7.39,1,10.42-1.05,3.97-2.69,6.97-6.98,9.97-10.64,6.32-7.71,12.9-15.15,20.03-22.14,12.07-11.81,24.4-23.76,38.46-33.21,9.62-6.47,23.3-14.5,34.65-7.6,6.36,3.86,10.68,10.69,13.99,17.17,4.59,8.99,7.76,18.69,10.46,28.39,6.48,23.21,10.29,47.12,14.07,70.89,3.22,20.3,5.69,41.01,11.02,60.9,1.7,6.36,5.79,23.12,15.74,16.84,4.79-3.02,7.29-9.48,9.32-14.47,3.73-9.16,6.38-18.76,8.93-28.3,6.23-23.32,11.2-46.97,18.08-70.12,2.83-9.54,5.87-19.25,10.48-28.11,2.09-4.02,6.08-11.96,11.62-11.61,7.97.51,12.45,14.12,14.84,20,4.58,11.25,8.25,22.85,13.09,34.01,6.85,15.79,20.79,39.24,41.11,27.25,20.86-12.31,27.69-40.94,50.42-51.05,27.7-12.32,42.35,25.73,56.74,41.48,7.84,8.59,18.1,14.41,30.04,13.27,11.71-1.12,21.4-8.55,29.63-16.4,9.93-9.46,18.6-20.45,29.8-28.5,13.78-9.91,29.63-10.77,44.28-1.79,16.03,9.83,27.32,26.53,36.65,42.44.48.83,3.31-.09,2.69-1.14-14.92-25.44-42.06-61.12-75.92-45.93-11.94,5.36-21.15,15.25-30.06,24.53-8.98,9.36-18.81,20.72-31.81,24.27-29.47,8.03-42.15-29.06-58.27-45.56-7.71-7.89-17.86-12.37-28.95-9.88s-19.72,11-26.85,19.45c-11.41,13.51-30.56,49.99-51.7,30.56-8.64-7.93-13.42-19.74-17.64-30.42s-7.89-22.54-12.93-33.34c-2.67-5.72-6.71-14.5-14.04-14.94-5.39-.32-9.55,3.89-12.36,7.99-4.85,7.05-7.83,15.48-10.54,23.53-3.73,11.08-6.73,22.41-9.61,33.73-5.75,22.61-10.4,45.7-17.98,67.81-2.18,6.37-4.58,14.52-9.63,19.32-3.44,3.26-6.02.12-7.81-3.21-3.24-6.01-4.74-13.1-6.21-19.7-2.18-9.78-3.83-19.67-5.44-29.56-3.93-24.14-7.35-48.39-12.42-72.33-4.13-19.52-8.72-40.88-19.81-57.82-3.62-5.53-8.41-10.83-14.85-13-11.1-3.73-23.39,2.84-32.48,8.66-14.27,9.13-26.69,20.98-38.79,32.73-6.71,6.52-13.12,13.28-19.13,20.45-3.81,4.55-7.34,9.99-12.03,13.7-7.16,5.66-11.73-4.02-13.93-9.55-8.01-20.12-10.92-42.75-14.33-63.96s-6.34-42.52-8.92-63.86c-2.09-17.25-2.89-35.32-7.26-52.2-.63-2.44-1.51-6.95-4.31-7.95-4.21-1.51-6.61,4.23-7.78,7.1-3.55,8.76-6.07,18.11-9.07,27.07-9.64,28.71-19.12,58.08-32.38,85.36-8.1,16.68-18.5,32.1-30.4,46.3l2.8-.35c-13.54-34.15-27.09-68.31-40.63-102.46-.38-.95-2.76-.33-2.9.57-4.38,29.39-8.76,58.79-13.14,88.18-2.19,14.7-4.38,29.39-6.57,44.09-1,6.74-2.01,13.47-3.01,20.21-1.09,7.28-1.67,14.88-3.29,22.06-4.81,21.32-11.6,42.38-17.37,63.46-2.43,8.87-4.86,17.75-7.29,26.62l2.9-.57c-6.39-63.59-12.77-127.18-19.16-190.77-.12-1.16-2.63-.05-2.9.57-14.98,33.85-29.95,67.69-44.93,101.54l2.9-.57c-15.03-34.92-30.07-69.85-45.1-104.77-.36-.83-1.8-.36-2.35-.05-10.57,5.9-21.13,11.79-31.7,17.69-1.7.95.84,1.41,1.8.88h0Z"/>
    <path class="cls-5" d="m147.37,243.01c7.57-30.53,15.14-61.07,22.71-91.6,1.87-7.56,3.75-15.12,5.62-22.67.45-1.81.9-3.63,1.35-5.44.25-.99.32-4.18.83-4.92.4-.58,1.65-1.06,2.21-1.42,4.95-3.18,9.89-6.37,14.84-9.55l-2.32.05c15.95,71.76,31.9,143.53,47.86,215.29,4.51,20.29,9.02,40.58,13.53,60.86.21.95,2.66.02,2.89-.6,6.44-17.34,12.88-34.67,19.33-52.01,3.33-8.96,6.66-17.92,9.99-26.87,1.82-4.9,2.66-9.73,6.45-13.32l9.39-8.89c1.74-1.64,4.78-3.58,5.98-5.67,1.01-1.75.68-4.87.85-6.88,1.23-14.53,2.62-29.05,4.27-43.54s3.29-30.58,6.96-45.4c.54-2.18,1.09-4.44,2.02-6.5.17-.38.95-1.42.95-1.78-.01-.84-.47-.48-.44.12s1.32,2.33,1.58,2.8c1.38,2.57,3.03,4.98,4.85,7.25,3.77,4.71,8.25,8.82,12.99,12.53s9.99,8.15,15.54,10c5.15,1.72,12.19,2.65,13.36,8.89,1.99,10.63,2.79,21.58,3.94,32.32,1.92,17.92,3.71,35.85,5.46,53.79,1.73,17.68,3.41,35.36,5.08,53.04.93,9.94,1.17,20.24,2.8,30.1.08.49.09,1,.14,1.49.05.13.14.22.28.26,19.05,5.97,36.14,16.96,49.4,31.89,5.08,5.72,9.47,11.95,13.87,18.2,2.65,3.76,5.46,8.38,9.6,10.68,15.9,8.82,24.27-24.16,26.8-33.11,3.19-11.26,5.66-22.7,8.45-34.07,1.13-4.6,2.28-9.21,3.77-13.71.84-2.54,1.74-6.09,3.74-8.02.53-.51-.08-.72.67.13.67.77,1.19,1.51,1.64,2.44,1.4,2.82,2.12,6.04,2.81,9.09,2.11,9.34,3.24,18.91,4.31,28.41,2.54,22.56,3.95,45.21,6.14,67.8.56,5.76.37,13.1,2.62,18.54,1.01,2.43,3.37,2.21,4.58-.04,1.52-2.81,1.6-7.02,2.02-10.11.89-6.49,1.52-13.03,2.12-19.55,1.81-19.59,3.17-39.22,4.54-58.84,3.21-45.73,5.92-91.53,10.37-137.17,1.39-14.23,2.5-28.81,5.77-42.77.41-1.73.81-3.55,1.53-5.18.13-.31.73-1.14.73-1.45,0-.11.34-.32.32-.4.06.19-1.44.13-1.48.29-.09.36,1.2,3.01,1.33,3.58.57,2.51.88,5.08,1.2,7.63,5.24,42.22,5.49,86.21,20.38,126.59,5.15,13.97,14.18,32.67,31.27,33.76,11.51.74,21.91-6.66,32.35-10.37,17.2-6.1,36.65-4.47,52.05,5.52,5.35,3.47,10.37,7.41,16.24,10.02,6.6,2.93,13.97,4.33,21.18,4.34,12.91.02,24.16-5.53,34.78-12.35,12.8-8.22,25.28-16.41,40.68-18.65,16.56-2.42,31.55,1.66,45.5,10.48,10.98,6.94,21.34,14.61,34.16,17.86,14.54,3.7,30.57,2.54,44.53-2.87s25.15-14.87,38.54-20.79c19.12-8.45,40.8-8.35,60.63-2.44s36.29,16.18,51.93,28.3c.73.57,3.37-.56,2.71-1.08-21.41-16.6-46.36-30.46-73.85-32.62-11.94-.94-24.08.28-35.45,4.11-9.56,3.22-18.14,8.36-26.7,13.59-9.76,5.96-19.74,11.35-31.14,13.35-12.25,2.14-25.21,1.2-36.8-3.42-16.98-6.78-30-20.83-48.15-25.08-20.42-4.78-40.89,1.28-58.27,12.08-8.1,5.03-15.83,10.89-24.69,14.56-10.83,4.49-23.03,4.54-34.06.61-8.97-3.19-15.9-9.72-24.2-14.13-10.1-5.37-22.11-7.18-33.44-6.23-9.63.81-18.54,4.08-27.29,8-7.59,3.4-15.67,7.5-24.16,4.96-11.26-3.37-18.06-15.01-22.54-25.06-6.29-14.13-9.82-29.47-12.64-44.62-5.42-29.2-7.02-58.76-10.54-88.19-.31-2.62-.24-13.81-4.92-12.74-3.92.9-4.56,8.1-5.17,11.15-4.73,23.4-6.03,47.71-7.95,71.46-2.67,33.02-4.84,66.08-7.14,99.13-1.82,26.23-3.37,52.54-6.34,78.68-.42,3.66-.85,7.32-1.48,10.95-.21,1.22-1.68,4.59-1.4,5.7.07.29-.23.17-.13.27.39.39,1.85-.52,1.85-.53.03-.1-.25-.35-.24-.47.07-1.02-.75-2.7-.94-3.75-.92-4.96-1.37-10.02-1.86-15.04-2.99-30.58-3.85-61.68-9.54-91.93-.73-3.89-2.2-18.65-8.88-17.16-3.12.7-4.52,4.23-5.57,6.88-2.31,5.83-3.73,12.05-5.21,18.13-3.86,15.85-7.01,32.07-12.86,47.34-2.12,5.54-4.66,12.05-9.31,16-5.5,4.68-10.48-1.06-13.83-5.46-6.55-8.6-12.27-17.66-19.8-25.5-9.71-10.12-21.34-18.37-34.13-24.13-2.57-1.16-5.19-2.21-7.85-3.17-.96-.35-4.09-.85-4.57-1.44-.24-.29-.13-1.46-.17-1.82-.31-3.41-.63-6.82-.95-10.22-2.75-29.66-5.57-59.32-8.52-88.96-1.51-15.16-3.04-30.32-4.72-45.46-.91-8.17-.95-17.41-3.27-25.34-1.47-5.02-8.11-6.91-12.63-8.02s-9.86-5.24-14.06-8.35-8.3-6.6-11.92-10.46-5.89-8.47-8.98-12.79c-1.28-1.79-3.09-2.25-4.97-.7-2.26,1.86-2.97,5.97-3.65,8.61-1.47,5.72-2.45,11.57-3.37,17.4-2.38,15.15-4.06,30.42-5.59,45.68-1.05,10.41-2.35,20.89-2.85,31.34-.01.24-.18,1.99,0,1.6-.38.87-3.67,3.43-4.89,4.59-3.01,2.85-6.01,5.69-9.02,8.54-1.29,1.22-3.14,2.46-4.12,3.95-1.87,2.84-2.74,7.32-3.92,10.5-1.4,3.76-2.79,7.51-4.19,11.27-2.79,7.51-5.58,15.03-8.37,22.54-5.69,15.31-11.38,30.63-17.07,45.94l2.89-.6c-15.95-71.76-31.9-143.53-47.86-215.29-4.51-20.29-9.02-40.58-13.53-60.86-.17-.76-1.97-.18-2.32.05-5.04,3.24-10.08,6.48-15.11,9.73-3.05,1.96-2.93,3.36-3.9,7.27-2.02,8.16-4.05,16.32-6.07,24.49-7.87,31.74-15.74,63.48-23.61,95.23-.22.9,2.66.47,2.88-.42h0Z"/>
    <path class="cls-2" d="m144.48,304.27c9.21,34.26,18.42,68.51,27.62,102.77.15.57,2-.11,2.27-.23,5.26-2.33,10.52-4.67,15.79-7,.23-.1.59-.26.62-.54,8.13-80.36,16.26-160.73,24.4-241.09,2.32-22.96,4.65-45.92,6.97-68.88l-2.9.78c5.48,84.84,10.96,169.68,16.45,254.52,1.56,24.08,3.11,48.17,4.67,72.25.03.51,2.78-.11,2.9-.78,10.34-57.32,20.68-114.63,31.02-171.95,2.93-16.22,5.85-32.44,8.78-48.67l-2.9.78c3.57,14.87,7.13,29.73,10.7,44.6,1.85,7.7,3.69,15.4,5.54,23.1.83,3.45,1.66,6.9,2.48,10.35.38,1.59.45,2.62,1.55,3.67,1.42,1.36,3.88,2.18,5.6,3.15,3.03,1.7,6.07,3.41,9.1,5.11,2.07,1.17,5.47,2.39,7.06,4.1,1.2,1.29,1.96,3.61,2.8,5.15,3.46,6.38,6.92,12.75,10.38,19.13,1.16,2.14,2.51,4.27,3.52,6.49,1.63,3.59,1.49,8.26,2.01,12.15,1.79,13.27,3.69,26.53,5.78,39.76,2.84,17.95,5.89,35.92,10.19,53.58,2.11,8.66,4.21,18.2,8.82,25.96,2.12,3.56,5.07,6.09,9.26,3.74,5.38-3.02,7.23-12.14,8.73-17.49,3.35-11.9,5.49-24.15,7.52-36.32,4.89-29.35,8.3-58.92,12.68-88.34,1.5-10.12,2.85-20.43,5.58-30.31.37-1.36.77-2.73,1.31-4.03.15-.35,1.36-2.12,1.31-2.37-.01-.07.19-.11.16-.14-.29-.34-1.51.74-1.46.5,0,.04.25.16.25.22-.01.33.84,1.62.98,2.01.77,2.22,1.07,4.65,1.39,6.97,1.97,14.11,1.74,28.8,5.51,42.62.82,3.01,2.1,8.04,5.86,8.47,2.56.3,5.04-1.26,6.67-3.07,6.3-6.97,9.08-17.98,11.98-26.65,4.77-14.26,8.91-28.72,13.48-43.04s8.82-27.37,15.28-40.13c2.93-5.79,9.51-19.65,18.02-16.88,8.94,2.9,13.78,15.75,17.04,23.5,5.77,13.7,10.02,28.02,14.41,42.19,4.35,14.05,8.52,28.27,14.29,41.82,2.97,6.99,7.41,18.61,15.6,21.08,10.58,3.19,15.97-10.36,18.84-17.83s5.08-14.73,8.1-21.92c2.5-5.96,5.78-13.62,11.75-16.91,9.75-5.37,19.84,9.04,24.26,15.59,8.5,12.59,15.05,26.45,22.05,39.89,6.95,13.35,14.01,27.14,23.76,38.72,6.49,7.71,15.23,15.2,26,13.83,10.19-1.29,17.63-9.15,23.19-17.18,8.29-11.97,14.05-25.66,19.7-39,6.06-14.31,11.7-28.86,18.83-42.68,4.87-9.44,11.53-22.6,22.2-26.62,10.21-3.84,19.51,5.98,24.87,13.35,8.47,11.65,14.3,25.22,19.99,38.38,6.22,14.39,11.95,29.01,18.96,43.04,4.94,9.89,10.82,21.68,20.41,27.9,20.06,13.02,35.28-16.9,41.93-30.87,6.75-14.18,12.39-28.87,18.68-43.26,5.69-13.02,11.68-26.51,20.63-37.67,3.37-4.21,7.4-8.31,12.33-10.66,8.13-3.87,16.91-.07,23.38,5.35.57.48,3.11-.65,2.74-.96-10.53-8.82-23.51-9.24-34.07-.66-9.9,8.05-16.19,20.34-21.66,31.6-6.86,14.13-12.55,28.79-18.76,43.2-5.34,12.4-10.81,25.46-19.3,36.1-2.96,3.71-6.78,7.8-11.47,9.22-4.36,1.32-8.9-.38-12.48-2.91-9.73-6.88-15.6-19.2-20.65-29.61-6.88-14.18-12.63-28.89-18.94-43.33-5.63-12.88-11.47-26.27-20.14-37.45-5.53-7.13-13.11-13.84-22.77-12.54s-16.81,9.38-21.98,17.22c-16.58,25.13-24.09,55.26-38.24,81.69-5.19,9.69-12.33,22.74-23.46,26.57-11.36,3.91-21.94-6.49-28.35-14.5-18.99-23.71-28.13-53.61-45.44-78.39-4.87-6.97-11.96-16.28-21.54-15.57-12.83.96-18.1,16.05-21.84,26.22-2.61,7.09-4.82,14.38-7.99,21.25-1.79,3.89-5.25,11.75-10.66,10.4-8.59-2.14-13.28-15.37-16.21-22.46-11.31-27.39-16.91-56.84-28.72-84.04-3.27-7.53-8-19.24-16.61-22.14-7.16-2.41-13.65,3.16-17.59,8.5-7.49,10.15-11.88,22.74-16.03,34.52-5.13,14.58-9.48,29.43-14.06,44.19-3.6,11.61-6.99,23.66-12.48,34.56-1.08,2.14-3.21,7.2-5.85,7.93.44-.12-.36-.02-.85-.32-.85-.51-1.42-1.24-1.94-2.07-1.31-2.08-1.97-4.63-2.55-7-3.43-13.92-3.22-28.49-5.37-42.61-.34-2.22-.55-7.91-3.48-8.42-1.88-.32-3.41,1.17-4.21,2.63-3.48,6.36-4.11,15.11-5.3,22.12-2.23,13.14-4,26.36-5.8,39.56-3.98,29.16-7.38,58.6-13.75,87.36-1.84,8.32-3.55,18.12-8.33,25.38-.55.84-1.3,2.08-2.25,2.52-.6.27.53.03.12-.01-.28-.03-.65-.13-.88-.29-1.76-1.16-2.9-2.72-3.94-4.56-4.58-8.12-6.72-17.88-8.87-26.86-4.36-18.24-7.46-36.79-10.35-55.31-2.06-13.23-3.94-26.49-5.71-39.77-.44-3.29-.33-6.69-1.92-9.62l-3.88-7.15-10.13-18.67c-.74-1.36-1.41-3.41-2.47-4.55-1.34-1.43-3.96-2.31-5.71-3.29-3.5-1.97-7-3.93-10.5-5.9-1.52-.85-3.59-1.63-4.9-2.75-1.67-1.44-1.99-3.47-2.47-5.47-.89-3.72-1.78-7.43-2.68-11.15-1.72-7.17-3.44-14.33-5.16-21.5-3.5-14.6-7.01-29.2-10.51-43.8-.15-.62-2.79.17-2.9.78-10.34,57.32-20.68,114.63-31.02,171.95-2.93,16.22-5.85,32.44-8.78,48.67l2.9-.78c-5.48-84.84-10.96-169.68-16.45-254.52-1.56-24.08-3.11-48.17-4.67-72.25-.03-.48-2.83.07-2.9.78-9.49,93.76-18.97,187.52-28.46,281.27-.66,6.56-1.33,13.12-1.99,19.68-.14,1.37-.28,2.73-.41,4.1-.05.47.03,4.41.01,4.43-.32.42-1.62.72-2.09.93-4.53,2.01-9.06,4.02-13.58,6.02l2.27-.23c-9.21-34.26-18.42-68.51-27.62-102.77-.16-.58-3.06.18-2.9.78h0Z"/>
  </g>
  <g id="Petrel">
    <g>
      <path class="cls-1" d="m1008.64,235.83c-1.69,4.38-2.97,8.01-3.83,10.54-2.19,6.46-2.06,6.89-3.23,8.88-1.95,3.33-3.56,4.23-5.93,8.75-.94,1.8-1.41,2.7-1.83,3.69-1.39,3.3-1.21,4.38-2.28,4.98-.83.46-1.58.17-5.31-.81-1.99-.52-3.6-.92-4.63-1.17l-4.14.48c.77,1.19,1.54,2.38,2.31,3.58,1.05.67,2.1,1.33,3.15,2,0,0,6.15,5.3,6.15,5.3-.64,2.45-1.28,4.91-1.92,7.36-.33,1.59-.7,3.99-.66,6.9.06,3.64.74,5.44,1,8.21.24,2.54.17,6.2-1.38,10.85l-4.08,14.14c2.1-1.76,4.41-4.03,6.62-6.92,5.45-7.12,7.54-14.41,8.42-19-.41-1.91-.81-4.82-.35-8.31.57-4.3,2.18-7.49,3.27-9.31l4.31,1.08,4.33,1.08s.6.53,1.17,1.12c.7.73.83,1.5.95,1.46.08-.02,0-.35.02-1.05,0-.28.02-.5.04-.65-.33-.62-.67-1.23-1-1.85.09-.38.17-.96.09-1.65-.06-.46-.24-1.37-1.05-2.47-1.46-1.97-3.51-2.5-4.28-3.2-1.48-1.34-1.89-5.2,3.64-16.76.35-.48.87-1.24,1.33-2.25,1.19-2.6,1.21-5,1.15-6.75-.11-3.6-.71-10.06-2.06-18.27Z"/>
      <path class="cls-2" d="m1008.15,235.82c-1.66,4.3-3.22,8.64-4.65,13.01-.7,2.13-1.23,4.38-2.36,6.34-.88,1.51-1.97,2.86-3.03,4.24-1.37,1.77-2.46,3.67-3.49,5.65-.9,1.73-1.67,3.48-2.27,5.34-.25.76-.53,2.16-1.49,2.29-.55.07-1.27-.2-1.8-.33-1.28-.33-2.56-.68-3.84-1.01-1.08-.28-2.17-.62-3.27-.82-.65-.12-1.41.09-2.06.17l-2.43.28c-.09.01-.59.08-.46.29.36.56.73,1.13,1.09,1.69.19.3.38.6.58.89s.39.75.64.99c.41.4,1.04.67,1.53.98.54.34,1.12.65,1.64,1.03.7.52,1.34,1.16,2.01,1.73,1.04.89,2.07,1.78,3.11,2.67.27.23.71.49.92.79.12.17.12.05.02.35-.23.69-.37,1.43-.56,2.14-.61,2.33-1.32,4.65-1.65,7.04s-.4,5.05-.11,7.55c.23,1.96.7,3.88.85,5.84s.05,3.93-.27,5.87c-.51,3.08-1.58,6.08-2.45,9.08-.92,3.2-1.84,6.39-2.77,9.59-.1.34.79.2.92.08,5.5-4.64,9.82-10.57,12.52-17.24,1.01-2.5,1.8-5.1,2.37-7.74.06-.26.11-.53.16-.79.06-.29,0-.52-.07-.81-.14-.71-.24-1.43-.32-2.15-.18-1.78-.16-3.58.05-5.36.41-3.36,1.55-6.6,3.29-9.5l-.83.15c1.43.36,2.85.71,4.28,1.07s2.82.82,4.25,1.06c.2.03-.04-.06.03,0,.27.25.54.5.8.76.3.3.59.61.81.97.13.22.22.58.39.77.21.22.83.23,1.02-.03.1-.14.05-.37.04-.53-.01-.37.08-.8.03-1.17-.05-.35-.35-.73-.52-1.04-.28-.51-.45-.82-.39-1.4.08-.66.01-1.34-.2-1.97-.48-1.47-1.57-2.64-2.84-3.49-1.15-.76-2.6-1.13-3.04-2.56-.4-1.29-.19-2.75.07-4.05.54-2.68,1.57-5.27,2.64-7.78.38-.89.78-1.78,1.19-2.66.36-.77.82-1.44,1.24-2.17.91-1.57,1.45-3.31,1.65-5.11.27-2.51-.02-5.13-.24-7.63-.31-3.44-.74-6.87-1.25-10.29-.16-1.04-.32-2.08-.49-3.11-.05-.29-1.04-.19-1,.08.82,4.99,1.5,10.01,1.88,15.05.13,1.76.27,3.56.16,5.33-.09,1.34-.35,2.67-.84,3.93-.25.63-.54,1.24-.89,1.82-.31.52-.68.99-.93,1.54-1.75,3.71-3.57,7.64-4.24,11.72-.24,1.45-.43,3.43.7,4.59.49.5,1.18.78,1.78,1.12,1.17.66,2.21,1.5,2.92,2.66.67,1.09.79,2.14.67,3.39-.07.65.63,1.3.87,1.9.13.33.05.68.05,1.03,0,.04.06.71.04.72l.68-.12c.24.05.13.1.11-.07-.02-.11-.11-.25-.16-.34-.21-.42-.49-.78-.81-1.11s-.72-.85-1.15-1.04c-.64-.29-1.48-.37-2.16-.54-1.34-.33-2.68-.67-4.02-1-.82-.2-1.63-.41-2.45-.61-.22-.05-.69-.08-.83.15-1.44,2.41-2.47,5.05-3.02,7.8-.36,1.78-.51,3.59-.46,5.4.02.77.08,1.54.18,2.3.08.68.27,1.35.34,2.03.05.5-.16,1.09-.27,1.59-.15.67-.32,1.34-.5,2-.37,1.34-.79,2.67-1.27,3.97-1.2,3.23-2.76,6.32-4.67,9.18-2.29,3.44-5.08,6.53-8.24,9.2l.92.08c1.04-3.6,2.07-7.19,3.11-10.79.92-3.21,2.03-6.37,2.36-9.71.24-2.45.04-4.84-.38-7.26-.52-2.95-.76-5.86-.48-8.85.34-3.7,1.5-7.27,2.44-10.85.02-.04.02-.07,0-.11-1.09-.94-2.18-1.87-3.27-2.81-1.16-1-2.28-2.11-3.57-2.93-.98-.62-2.22-1.17-2.85-2.15s-1.28-1.99-1.92-2.98l-.46.29,2.19-.25c.58-.07,1.3-.26,1.85-.19,1.07.13,2.18.54,3.23.81,1.18.31,2.36.63,3.54.93.65.17,1.31.35,1.98.41.9.08,1.86-.17,2.38-.97.35-.54.5-1.22.7-1.82.33-1.01.7-2.02,1.13-2.99.9-2.01,1.95-4.01,3.15-5.85,1.02-1.56,2.25-2.95,3.32-4.47.71-1,1.38-2.05,1.86-3.18.44-1.05.75-2.15,1.1-3.23,1.58-4.96,3.33-9.87,5.2-14.72.11-.28-.87-.3-.97-.03Z"/>
    </g>
  </g>
</svg>