<?xml version="1.0" encoding="utf-8"?>
<svg xmlns="http://www.w3.org/2000/svg" xmlns:xlink="http://www.w3.org/1999/xlink" xml:space="preserve" width="990" height="1155" viewBox="0 0 990 1155"><rect width="916.575" height="916.575" fill="#000000" x="41.25" y="41.25"/><g transform="scale(41.25)" fill="#ffffff"><path d="M22.7,0H1.3C0.6,0,0,0.6,0,1.3v25.3C0,27.4,0.6,28,1.3,28h21.3c0.7,0,1.3-0.6,1.3-1.3V1.3C24,0.6,23.4,0,22.7,0 z M23,22c0,0.6-0.5,1-1,1H2c-0.6,0-1-0.5-1-1V2c0-0.6,0.5-1,1-1h20c0.6,0,1,0.5,1,1V22z"/></g><g fill="#ffffff">
<g transform="translate(339,99) scale(4.12)"><rect width="6" height="6"/></g>
<g transform="translate(411,99) scale(4.12)"><rect width="6" height="6"/></g>
<g transform="translate(483,99) scale(4.12)"><rect width="6" height="6"/></g>
<g transform="translate(531,99) scale(4.12)"><rect width="6" height="6"/></g>
<g transform="translate(555,99) scale(4.12)"><rect width="6" height="6"/></g>
<g transform="translate(603,99) scale(4.12)"><rect width="6" height="6"/></g>
<g transform="translate(651,99) scale(4.12)"><rect width="6" height="6"/></g>
<g transform="translate(363,123) scale(4.12)"><rect width="6" height="6"/></g>
<g transform="translate(411,123) scale(4.12)"><rect width="6" height="6"/></g>
<g transform="translate(435,123) scale(4.12)"><rect width="6" height="6"/></g>
<g transform="translate(459,123) scale(4.12)"><rect width="6" height="6"/></g>
<g transform="translate(507,123) scale(4.12)"><rect width="6" height="6"/></g>
<g transform="translate(627,123) scale(4.12)"><rect width="6" height="6"/></g>
<g transform="translate(675,123) scale(4.12)"><rect width="6" height="6"/></g>
<g transform="translate(291,147) scale(4.12)"><rect width="6" height="6"/></g>
<g transform="translate(315,147) scale(4.12)"><rect width="6" height="6"/></g>
<g transform="translate(363,147) scale(4.12)"><rect width="6" height="6"/></g>
<g transform="translate(411,147) scale(4.12)"><rect width="6" height="6"/></g>
<g transform="translate(459,147) scale(4.12)"><rect width="6" height="6"/></g>
<g transform="translate(483,147) scale(4.12)"><rect width="6" height="6"/></g>
<g transform="translate(507,147) scale(4.12)"><rect width="6" height="6"/></g>
<g transform="translate(531,147) scale(4.12)"><rect width="6" height="6"/></g>
<g transform="translate(555,147) scale(4.12)"><rect width="6" height="6"/></g>
<g transform="translate(603,147) scale(4.12)"><rect width="6" height="6"/></g>
<g transform="translate(627,147) scale(4.12)"><rect width="6" height="6"/></g>
<g transform="translate(675,147) scale(4.12)"><rect width="6" height="6"/></g>
<g transform="translate(291,171) scale(4.12)"><rect width="6" height="6"/></g>
<g transform="translate(387,171) scale(4.12)"><rect width="6" height="6"/></g>
<g transform="translate(435,171) scale(4.12)"><rect width="6" height="6"/></g>
<g transform="translate(459,171) scale(4.12)"><rect width="6" height="6"/></g>
<g transform="translate(483,171) scale(4.12)"><rect width="6" height="6"/></g>
<g transform="translate(579,171) scale(4.12)"><rect width="6" height="6"/></g>
<g transform="translate(291,195) scale(4.12)"><rect width="6" height="6"/></g>
<g transform="translate(315,195) scale(4.12)"><rect width="6" height="6"/></g>
<g transform="translate(339,195) scale(4.12)"><rect width="6" height="6"/></g>
<g transform="translate(363,195) scale(4.12)"><rect width="6" height="6"/></g>
<g transform="translate(387,195) scale(4.12)"><rect width="6" height="6"/></g>
<g transform="translate(459,195) scale(4.12)"><rect width="6" height="6"/></g>
<g transform="translate(507,195) scale(4.12)"><rect width="6" height="6"/></g>
<g transform="translate(531,195) scale(4.12)"><rect width="6" height="6"/></g>
<g transform="translate(579,195) scale(4.12)"><rect width="6" height="6"/></g>
<g transform="translate(627,195) scale(4.12)"><rect width="6" height="6"/></g>
<g transform="translate(651,195) scale(4.12)"><rect width="6" height="6"/></g>
<g transform="translate(291,219) scale(4.12)"><rect width="6" height="6"/></g>
<g transform="translate(387,219) scale(4.12)"><rect width="6" height="6"/></g>
<g transform="translate(435,219) scale(4.12)"><rect width="6" height="6"/></g>
<g transform="translate(459,219) scale(4.12)"><rect width="6" height="6"/></g>
<g transform="translate(483,219) scale(4.12)"><rect width="6" height="6"/></g>
<g transform="translate(507,219) scale(4.12)"><rect width="6" height="6"/></g>
<g transform="translate(555,219) scale(4.12)"><rect width="6" height="6"/></g>
<g transform="translate(603,219) scale(4.12)"><rect width="6" height="6"/></g>
<g transform="translate(627,219) scale(4.12)"><rect width="6" height="6"/></g>
<g transform="translate(651,219) scale(4.12)"><rect width="6" height="6"/></g>
<g transform="translate(675,219) scale(4.12)"><rect width="6" height="6"/></g>
<g transform="translate(291,243) scale(4.12)"><rect width="6" height="6"/></g>
<g transform="translate(339,243) scale(4.12)"><rect width="6" height="6"/></g>
<g transform="translate(387,243) scale(4.12)"><rect width="6" height="6"/></g>
<g transform="translate(435,243) scale(4.12)"><rect width="6" height="6"/></g>
<g transform="translate(483,243) scale(4.12)"><rect width="6" height="6"/></g>
<g transform="translate(531,243) scale(4.12)"><rect width="6" height="6"/></g>
<g transform="translate(579,243) scale(4.12)"><rect width="6" height="6"/></g>
<g transform="translate(627,243) scale(4.12)"><rect width="6" height="6"/></g>
<g transform="translate(675,243) scale(4.12)"><rect width="6" height="6"/></g>
<g transform="translate(291,267) scale(4.12)"><rect width="6" height="6"/></g>
<g transform="translate(315,267) scale(4.12)"><rect width="6" height="6"/></g>
<g transform="translate(339,267) scale(4.12)"><rect width="6" height="6"/></g>
<g transform="translate(387,267) scale(4.12)"><rect width="6" height="6"/></g>
<g transform="translate(435,267) scale(4.12)"><rect width="6" height="6"/></g>
<g transform="translate(459,267) scale(4.12)"><rect width="6" height="6"/></g>
<g transform="translate(531,267) scale(4.12)"><rect width="6" height="6"/></g>
<g transform="translate(555,267) scale(4.12)"><rect width="6" height="6"/></g>
<g transform="translate(579,267) scale(4.12)"><rect width="6" height="6"/></g>
<g transform="translate(603,267) scale(4.12)"><rect width="6" height="6"/></g>
<g transform="translate(651,267) scale(4.12)"><rect width="6" height="6"/></g>
<g transform="translate(99,291) scale(4.12)"><rect width="6" height="6"/></g>
<g transform="translate(147,291) scale(4.12)"><rect width="6" height="6"/></g>
<g transform="translate(171,291) scale(4.12)"><rect width="6" height="6"/></g>
<g transform="translate(195,291) scale(4.12)"><rect width="6" height="6"/></g>
<g transform="translate(219,291) scale(4.12)"><rect width="6" height="6"/></g>
<g transform="translate(243,291) scale(4.12)"><rect width="6" height="6"/></g>
<g transform="translate(315,291) scale(4.12)"><rect width="6" height="6"/></g>
<g transform="translate(339,291) scale(4.12)"><rect width="6" height="6"/></g>
<g transform="translate(387,291) scale(4.12)"><rect width="6" height="6"/></g>
<g transform="translate(411,291) scale(4.12)"><rect width="6" height="6"/></g>
<g transform="translate(435,291) scale(4.12)"><rect width="6" height="6"/></g>
<g transform="translate(459,291) scale(4.12)"><rect width="6" height="6"/></g>
<g transform="translate(483,291) scale(4.12)"><rect width="6" height="6"/></g>
<g transform="translate(507,291) scale(4.12)"><rect width="6" height="6"/></g>
<g transform="translate(723,291) scale(4.12)"><rect width="6" height="6"/></g>
<g transform="translate(747,291) scale(4.12)"><rect width="6" height="6"/></g>
<g transform="translate(771,291) scale(4.12)"><rect width="6" height="6"/></g>
<g transform="translate(795,291) scale(4.12)"><rect width="6" height="6"/></g>
<g transform="translate(819,291) scale(4.12)"><rect width="6" height="6"/></g>
<g transform="translate(123,315) scale(4.12)"><rect width="6" height="6"/></g>
<g transform="translate(267,315) scale(4.12)"><rect width="6" height="6"/></g>
<g transform="translate(315,315) scale(4.12)"><rect width="6" height="6"/></g>
<g transform="translate(363,315) scale(4.12)"><rect width="6" height="6"/></g>
<g transform="translate(387,315) scale(4.12)"><rect width="6" height="6"/></g>
<g transform="translate(435,315) scale(4.12)"><rect width="6" height="6"/></g>
<g transform="translate(483,315) scale(4.12)"><rect width="6" height="6"/></g>
<g transform="translate(531,315) scale(4.12)"><rect width="6" height="6"/></g>
<g transform="translate(555,315) scale(4.12)"><rect width="6" height="6"/></g>
<g transform="translate(579,315) scale(4.12)"><rect width="6" height="6"/></g>
<g transform="translate(603,315) scale(4.12)"><rect width="6" height="6"/></g>
<g transform="translate(651,315) scale(4.12)"><rect width="6" height="6"/></g>
<g transform="translate(723,315) scale(4.12)"><rect width="6" height="6"/></g>
<g transform="translate(747,315) scale(4.12)"><rect width="6" height="6"/></g>
<g transform="translate(795,315) scale(4.12)"><rect width="6" height="6"/></g>
<g transform="translate(819,315) scale(4.12)"><rect width="6" height="6"/></g>
<g transform="translate(99,339) scale(4.12)"><rect width="6" height="6"/></g>
<g transform="translate(123,339) scale(4.12)"><rect width="6" height="6"/></g>
<g transform="translate(147,339) scale(4.12)"><rect width="6" height="6"/></g>
<g transform="translate(171,339) scale(4.12)"><rect width="6" height="6"/></g>
<g transform="translate(219,339) scale(4.12)"><rect width="6" height="6"/></g>
<g transform="translate(243,339) scale(4.12)"><rect width="6" height="6"/></g>
<g transform="translate(267,339) scale(4.12)"><rect width="6" height="6"/></g>
<g transform="translate(291,339) scale(4.12)"><rect width="6" height="6"/></g>
<g transform="translate(315,339) scale(4.12)"><rect width="6" height="6"/></g>
<g transform="translate(339,339) scale(4.12)"><rect width="6" height="6"/></g>
<g transform="translate(363,339) scale(4.12)"><rect width="6" height="6"/></g>
<g transform="translate(387,339) scale(4.12)"><rect width="6" height="6"/></g>
<g transform="translate(459,339) scale(4.12)"><rect width="6" height="6"/></g>
<g transform="translate(483,339) scale(4.12)"><rect width="6" height="6"/></g>
<g transform="translate(531,339) scale(4.12)"><rect width="6" height="6"/></g>
<g transform="translate(579,339) scale(4.12)"><rect width="6" height="6"/></g>
<g transform="translate(627,339) scale(4.12)"><rect width="6" height="6"/></g>
<g transform="translate(675,339) scale(4.12)"><rect width="6" height="6"/></g>
<g transform="translate(771,339) scale(4.12)"><rect width="6" height="6"/></g>
<g transform="translate(819,339) scale(4.12)"><rect width="6" height="6"/></g>
<g transform="translate(843,339) scale(4.12)"><rect width="6" height="6"/></g>
<g transform="translate(99,363) scale(4.12)"><rect width="6" height="6"/></g>
<g transform="translate(219,363) scale(4.12)"><rect width="6" height="6"/></g>
<g transform="translate(267,363) scale(4.12)"><rect width="6" height="6"/></g>
<g transform="translate(315,363) scale(4.12)"><rect width="6" height="6"/></g>
<g transform="translate(339,363) scale(4.12)"><rect width="6" height="6"/></g>
<g transform="translate(363,363) scale(4.12)"><rect width="6" height="6"/></g>
<g transform="translate(387,363) scale(4.12)"><rect width="6" height="6"/></g>
<g transform="translate(435,363) scale(4.12)"><rect width="6" height="6"/></g>
<g transform="translate(531,363) scale(4.12)"><rect width="6" height="6"/></g>
<g transform="translate(579,363) scale(4.12)"><rect width="6" height="6"/></g>
<g transform="translate(603,363) scale(4.12)"><rect width="6" height="6"/></g>
<g transform="translate(627,363) scale(4.12)"><rect width="6" height="6"/></g>
<g transform="translate(675,363) scale(4.12)"><rect width="6" height="6"/></g>
<g transform="translate(699,363) scale(4.12)"><rect width="6" height="6"/></g>
<g transform="translate(723,363) scale(4.12)"><rect width="6" height="6"/></g>
<g transform="translate(771,363) scale(4.12)"><rect width="6" height="6"/></g>
<g transform="translate(795,363) scale(4.12)"><rect width="6" height="6"/></g>
<g transform="translate(819,363) scale(4.12)"><rect width="6" height="6"/></g>
<g transform="translate(99,387) scale(4.12)"><rect width="6" height="6"/></g>
<g transform="translate(123,387) scale(4.12)"><rect width="6" height="6"/></g>
<g transform="translate(147,387) scale(4.12)"><rect width="6" height="6"/></g>
<g transform="translate(195,387) scale(4.12)"><rect width="6" height="6"/></g>
<g transform="translate(219,387) scale(4.12)"><rect width="6" height="6"/></g>
<g transform="translate(243,387) scale(4.12)"><rect width="6" height="6"/></g>
<g transform="translate(267,387) scale(4.12)"><rect width="6" height="6"/></g>
<g transform="translate(291,387) scale(4.12)"><rect width="6" height="6"/></g>
<g transform="translate(363,387) scale(4.12)"><rect width="6" height="6"/></g>
<g transform="translate(459,387) scale(4.12)"><rect width="6" height="6"/></g>
<g transform="translate(531,387) scale(4.12)"><rect width="6" height="6"/></g>
<g transform="translate(603,387) scale(4.12)"><rect width="6" height="6"/></g>
<g transform="translate(627,387) scale(4.12)"><rect width="6" height="6"/></g>
<g transform="translate(675,387) scale(4.12)"><rect width="6" height="6"/></g>
<g transform="translate(747,387) scale(4.12)"><rect width="6" height="6"/></g>
<g transform="translate(771,387) scale(4.12)"><rect width="6" height="6"/></g>
<g transform="translate(795,387) scale(4.12)"><rect width="6" height="6"/></g>
<g transform="translate(843,387) scale(4.12)"><rect width="6" height="6"/></g>
<g transform="translate(147,411) scale(4.12)"><rect width="6" height="6"/></g>
<g transform="translate(171,411) scale(4.12)"><rect width="6" height="6"/></g>
<g transform="translate(195,411) scale(4.12)"><rect width="6" height="6"/></g>
<g transform="translate(219,411) scale(4.12)"><rect width="6" height="6"/></g>
<g transform="translate(435,411) scale(4.12)"><rect width="6" height="6"/></g>
<g transform="translate(459,411) scale(4.12)"><rect width="6" height="6"/></g>
<g transform="translate(483,411) scale(4.12)"><rect width="6" height="6"/></g>
<g transform="translate(507,411) scale(4.12)"><rect width="6" height="6"/></g>
<g transform="translate(531,411) scale(4.12)"><rect width="6" height="6"/></g>
<g transform="translate(579,411) scale(4.12)"><rect width="6" height="6"/></g>
<g transform="translate(675,411) scale(4.12)"><rect width="6" height="6"/></g>
<g transform="translate(747,411) scale(4.12)"><rect width="6" height="6"/></g>
<g transform="translate(795,411) scale(4.12)"><rect width="6" height="6"/></g>
<g transform="translate(843,411) scale(4.12)"><rect width="6" height="6"/></g>
<g transform="translate(867,411) scale(4.12)"><rect width="6" height="6"/></g>
<g transform="translate(147,435) scale(4.12)"><rect width="6" height="6"/></g>
<g transform="translate(243,435) scale(4.12)"><rect width="6" height="6"/></g>
<g transform="translate(315,435) scale(4.12)"><rect width="6" height="6"/></g>
<g transform="translate(339,435) scale(4.12)"><rect width="6" height="6"/></g>
<g transform="translate(363,435) scale(4.12)"><rect width="6" height="6"/></g>
<g transform="translate(531,435) scale(4.12)"><rect width="6" height="6"/></g>
<g transform="translate(579,435) scale(4.12)"><rect width="6" height="6"/></g>
<g transform="translate(627,435) scale(4.12)"><rect width="6" height="6"/></g>
<g transform="translate(699,435) scale(4.12)"><rect width="6" height="6"/></g>
<g transform="translate(723,435) scale(4.12)"><rect width="6" height="6"/></g>
<g transform="translate(771,435) scale(4.12)"><rect width="6" height="6"/></g>
<g transform="translate(795,435) scale(4.12)"><rect width="6" height="6"/></g>
<g transform="translate(843,435) scale(4.12)"><rect width="6" height="6"/></g>
<g transform="translate(99,459) scale(4.12)"><rect width="6" height="6"/></g>
<g transform="translate(147,459) scale(4.12)"><rect width="6" height="6"/></g>
<g transform="translate(171,459) scale(4.12)"><rect width="6" height="6"/></g>
<g transform="translate(195,459) scale(4.12)"><rect width="6" height="6"/></g>
<g transform="translate(267,459) scale(4.12)"><rect width="6" height="6"/></g>
<g transform="translate(411,459) scale(4.12)"><rect width="6" height="6"/></g>
<g transform="translate(435,459) scale(4.12)"><rect width="6" height="6"/></g>
<g transform="translate(483,459) scale(4.12)"><rect width="6" height="6"/></g>
<g transform="translate(555,459) scale(4.12)"><rect width="6" height="6"/></g>
<g transform="translate(579,459) scale(4.12)"><rect width="6" height="6"/></g>
<g transform="translate(603,459) scale(4.12)"><rect width="6" height="6"/></g>
<g transform="translate(651,459) scale(4.12)"><rect width="6" height="6"/></g>
<g transform="translate(699,459) scale(4.12)"><rect width="6" height="6"/></g>
<g transform="translate(723,459) scale(4.12)"><rect width="6" height="6"/></g>
<g transform="translate(747,459) scale(4.12)"><rect width="6" height="6"/></g>
<g transform="translate(795,459) scale(4.12)"><rect width="6" height="6"/></g>
<g transform="translate(819,459) scale(4.12)"><rect width="6" height="6"/></g>
<g transform="translate(99,483) scale(4.12)"><rect width="6" height="6"/></g>
<g transform="translate(123,483) scale(4.12)"><rect width="6" height="6"/></g>
<g transform="translate(147,483) scale(4.12)"><rect width="6" height="6"/></g>
<g transform="translate(171,483) scale(4.12)"><rect width="6" height="6"/></g>
<g transform="translate(243,483) scale(4.12)"><rect width="6" height="6"/></g>
<g transform="translate(291,483) scale(4.12)"><rect width="6" height="6"/></g>
<g transform="translate(387,483) scale(4.12)"><rect width="6" height="6"/></g>
<g transform="translate(483,483) scale(4.12)"><rect width="6" height="6"/></g>
<g transform="translate(507,483) scale(4.12)"><rect width="6" height="6"/></g>
<g transform="translate(579,483) scale(4.12)"><rect width="6" height="6"/></g>
<g transform="translate(627,483) scale(4.12)"><rect width="6" height="6"/></g>
<g transform="translate(699,483) scale(4.12)"><rect width="6" height="6"/></g>
<g transform="translate(747,483) scale(4.12)"><rect width="6" height="6"/></g>
<g transform="translate(771,483) scale(4.12)"><rect width="6" height="6"/></g>
<g transform="translate(819,483) scale(4.12)"><rect width="6" height="6"/></g>
<g transform="translate(867,483) scale(4.12)"><rect width="6" height="6"/></g>
<g transform="translate(99,507) scale(4.12)"><rect width="6" height="6"/></g>
<g transform="translate(171,507) scale(4.12)"><rect width="6" height="6"/></g>
<g transform="translate(291,507) scale(4.12)"><rect width="6" height="6"/></g>
<g transform="translate(363,507) scale(4.12)"><rect width="6" height="6"/></g>
<g transform="translate(387,507) scale(4.12)"><rect width="6" height="6"/></g>
<g transform="translate(411,507) scale(4.12)"><rect width="6" height="6"/></g>
<g transform="translate(483,507) scale(4.12)"><rect width="6" height="6"/></g>
<g transform="translate(507,507) scale(4.12)"><rect width="6" height="6"/></g>
<g transform="translate(531,507) scale(4.12)"><rect width="6" height="6"/></g>
<g transform="translate(555,507) scale(4.12)"><rect width="6" height="6"/></g>
<g transform="translate(579,507) scale(4.12)"><rect width="6" height="6"/></g>
<g transform="translate(603,507) scale(4.12)"><rect width="6" height="6"/></g>
<g transform="translate(651,507) scale(4.12)"><rect width="6" height="6"/></g>
<g transform="translate(723,507) scale(4.12)"><rect width="6" height="6"/></g>
<g transform="translate(747,507) scale(4.12)"><rect width="6" height="6"/></g>
<g transform="translate(795,507) scale(4.12)"><rect width="6" height="6"/></g>
<g transform="translate(819,507) scale(4.12)"><rect width="6" height="6"/></g>
<g transform="translate(171,531) scale(4.12)"><rect width="6" height="6"/></g>
<g transform="translate(243,531) scale(4.12)"><rect width="6" height="6"/></g>
<g transform="translate(267,531) scale(4.12)"><rect width="6" height="6"/></g>
<g transform="translate(339,531) scale(4.12)"><rect width="6" height="6"/></g>
<g transform="translate(387,531) scale(4.12)"><rect width="6" height="6"/></g>
<g transform="translate(411,531) scale(4.12)"><rect width="6" height="6"/></g>
<g transform="translate(435,531) scale(4.12)"><rect width="6" height="6"/></g>
<g transform="translate(459,531) scale(4.12)"><rect width="6" height="6"/></g>
<g transform="translate(483,531) scale(4.12)"><rect width="6" height="6"/></g>
<g transform="translate(507,531) scale(4.12)"><rect width="6" height="6"/></g>
<g transform="translate(627,531) scale(4.12)"><rect width="6" height="6"/></g>
<g transform="translate(675,531) scale(4.12)"><rect width="6" height="6"/></g>
<g transform="translate(747,531) scale(4.12)"><rect width="6" height="6"/></g>
<g transform="translate(771,531) scale(4.12)"><rect width="6" height="6"/></g>
<g transform="translate(819,531) scale(4.12)"><rect width="6" height="6"/></g>
<g transform="translate(843,531) scale(4.12)"><rect width="6" height="6"/></g>
<g transform="translate(99,555) scale(4.12)"><rect width="6" height="6"/></g>
<g transform="translate(123,555) scale(4.12)"><rect width="6" height="6"/></g>
<g transform="translate(147,555) scale(4.12)"><rect width="6" height="6"/></g>
<g transform="translate(171,555) scale(4.12)"><rect width="6" height="6"/></g>
<g transform="translate(219,555) scale(4.12)"><rect width="6" height="6"/></g>
<g transform="translate(291,555) scale(4.12)"><rect width="6" height="6"/></g>
<g transform="translate(315,555) scale(4.12)"><rect width="6" height="6"/></g>
<g transform="translate(387,555) scale(4.12)"><rect width="6" height="6"/></g>
<g transform="translate(411,555) scale(4.12)"><rect width="6" height="6"/></g>
<g transform="translate(483,555) scale(4.12)"><rect width="6" height="6"/></g>
<g transform="translate(507,555) scale(4.12)"><rect width="6" height="6"/></g>
<g transform="translate(531,555) scale(4.12)"><rect width="6" height="6"/></g>
<g transform="translate(603,555) scale(4.12)"><rect width="6" height="6"/></g>
<g transform="translate(651,555) scale(4.12)"><rect width="6" height="6"/></g>
<g transform="translate(675,555) scale(4.12)"><rect width="6" height="6"/></g>
<g transform="translate(699,555) scale(4.12)"><rect width="6" height="6"/></g>
<g transform="translate(723,555) scale(4.12)"><rect width="6" height="6"/></g>
<g transform="translate(747,555) scale(4.12)"><rect width="6" height="6"/></g>
<g transform="translate(771,555) scale(4.12)"><rect width="6" height="6"/></g>
<g transform="translate(795,555) scale(4.12)"><rect width="6" height="6"/></g>
<g transform="translate(819,555) scale(4.12)"><rect width="6" height="6"/></g>
<g transform="translate(843,555) scale(4.12)"><rect width="6" height="6"/></g>
<g transform="translate(867,555) scale(4.12)"><rect width="6" height="6"/></g>
<g transform="translate(99,579) scale(4.12)"><rect width="6" height="6"/></g>
<g transform="translate(171,579) scale(4.12)"><rect width="6" height="6"/></g>
<g transform="translate(219,579) scale(4.12)"><rect width="6" height="6"/></g>
<g transform="translate(243,579) scale(4.12)"><rect width="6" height="6"/></g>
<g transform="translate(267,579) scale(4.12)"><rect width="6" height="6"/></g>
<g transform="translate(291,579) scale(4.12)"><rect width="6" height="6"/></g>
<g transform="translate(315,579) scale(4.12)"><rect width="6" height="6"/></g>
<g transform="translate(411,579) scale(4.12)"><rect width="6" height="6"/></g>
<g transform="translate(435,579) scale(4.12)"><rect width="6" height="6"/></g>
<g transform="translate(483,579) scale(4.12)"><rect width="6" height="6"/></g>
<g transform="translate(555,579) scale(4.12)"><rect width="6" height="6"/></g>
<g transform="translate(603,579) scale(4.12)"><rect width="6" height="6"/></g>
<g transform="translate(627,579) scale(4.12)"><rect width="6" height="6"/></g>
<g transform="translate(747,579) scale(4.12)"><rect width="6" height="6"/></g>
<g transform="translate(795,579) scale(4.12)"><rect width="6" height="6"/></g>
<g transform="translate(843,579) scale(4.12)"><rect width="6" height="6"/></g>
<g transform="translate(867,579) scale(4.12)"><rect width="6" height="6"/></g>
<g transform="translate(99,603) scale(4.12)"><rect width="6" height="6"/></g>
<g transform="translate(123,603) scale(4.12)"><rect width="6" height="6"/></g>
<g transform="translate(195,603) scale(4.12)"><rect width="6" height="6"/></g>
<g transform="translate(219,603) scale(4.12)"><rect width="6" height="6"/></g>
<g transform="translate(363,603) scale(4.12)"><rect width="6" height="6"/></g>
<g transform="translate(411,603) scale(4.12)"><rect width="6" height="6"/></g>
<g transform="translate(435,603) scale(4.12)"><rect width="6" height="6"/></g>
<g transform="translate(459,603) scale(4.12)"><rect width="6" height="6"/></g>
<g transform="translate(507,603) scale(4.12)"><rect width="6" height="6"/></g>
<g transform="translate(531,603) scale(4.12)"><rect width="6" height="6"/></g>
<g transform="translate(603,603) scale(4.12)"><rect width="6" height="6"/></g>
<g transform="translate(627,603) scale(4.12)"><rect width="6" height="6"/></g>
<g transform="translate(651,603) scale(4.12)"><rect width="6" height="6"/></g>
<g transform="translate(723,603) scale(4.12)"><rect width="6" height="6"/></g>
<g transform="translate(747,603) scale(4.12)"><rect width="6" height="6"/></g>
<g transform="translate(795,603) scale(4.12)"><rect width="6" height="6"/></g>
<g transform="translate(819,603) scale(4.12)"><rect width="6" height="6"/></g>
<g transform="translate(867,603) scale(4.12)"><rect width="6" height="6"/></g>
<g transform="translate(99,627) scale(4.12)"><rect width="6" height="6"/></g>
<g transform="translate(147,627) scale(4.12)"><rect width="6" height="6"/></g>
<g transform="translate(171,627) scale(4.12)"><rect width="6" height="6"/></g>
<g transform="translate(195,627) scale(4.12)"><rect width="6" height="6"/></g>
<g transform="translate(243,627) scale(4.12)"><rect width="6" height="6"/></g>
<g transform="translate(267,627) scale(4.12)"><rect width="6" height="6"/></g>
<g transform="translate(339,627) scale(4.12)"><rect width="6" height="6"/></g>
<g transform="translate(363,627) scale(4.12)"><rect width="6" height="6"/></g>
<g transform="translate(411,627) scale(4.12)"><rect width="6" height="6"/></g>
<g transform="translate(459,627) scale(4.12)"><rect width="6" height="6"/></g>
<g transform="translate(483,627) scale(4.12)"><rect width="6" height="6"/></g>
<g transform="translate(507,627) scale(4.12)"><rect width="6" height="6"/></g>
<g transform="translate(555,627) scale(4.12)"><rect width="6" height="6"/></g>
<g transform="translate(627,627) scale(4.12)"><rect width="6" height="6"/></g>
<g transform="translate(651,627) scale(4.12)"><rect width="6" height="6"/></g>
<g transform="translate(675,627) scale(4.12)"><rect width="6" height="6"/></g>
<g transform="translate(699,627) scale(4.12)"><rect width="6" height="6"/></g>
<g transform="translate(795,627) scale(4.12)"><rect width="6" height="6"/></g>
<g transform="translate(843,627) scale(4.12)"><rect width="6" height="6"/></g>
<g transform="translate(99,651) scale(4.12)"><rect width="6" height="6"/></g>
<g transform="translate(171,651) scale(4.12)"><rect width="6" height="6"/></g>
<g transform="translate(267,651) scale(4.12)"><rect width="6" height="6"/></g>
<g transform="translate(291,651) scale(4.12)"><rect width="6" height="6"/></g>
<g transform="translate(387,651) scale(4.12)"><rect width="6" height="6"/></g>
<g transform="translate(435,651) scale(4.12)"><rect width="6" height="6"/></g>
<g transform="translate(459,651) scale(4.12)"><rect width="6" height="6"/></g>
<g transform="translate(555,651) scale(4.12)"><rect width="6" height="6"/></g>
<g transform="translate(579,651) scale(4.12)"><rect width="6" height="6"/></g>
<g transform="translate(603,651) scale(4.12)"><rect width="6" height="6"/></g>
<g transform="translate(627,651) scale(4.12)"><rect width="6" height="6"/></g>
<g transform="translate(651,651) scale(4.12)"><rect width="6" height="6"/></g>
<g transform="translate(675,651) scale(4.12)"><rect width="6" height="6"/></g>
<g transform="translate(699,651) scale(4.12)"><rect width="6" height="6"/></g>
<g transform="translate(723,651) scale(4.12)"><rect width="6" height="6"/></g>
<g transform="translate(747,651) scale(4.12)"><rect width="6" height="6"/></g>
<g transform="translate(795,651) scale(4.12)"><rect width="6" height="6"/></g>
<g transform="translate(819,651) scale(4.12)"><rect width="6" height="6"/></g>
<g transform="translate(99,675) scale(4.12)"><rect width="6" height="6"/></g>
<g transform="translate(147,675) scale(4.12)"><rect width="6" height="6"/></g>
<g transform="translate(171,675) scale(4.12)"><rect width="6" height="6"/></g>
<g transform="translate(195,675) scale(4.12)"><rect width="6" height="6"/></g>
<g transform="translate(243,675) scale(4.12)"><rect width="6" height="6"/></g>
<g transform="translate(267,675) scale(4.12)"><rect width="6" height="6"/></g>
<g transform="translate(291,675) scale(4.12)"><rect width="6" height="6"/></g>
<g transform="translate(387,675) scale(4.12)"><rect width="6" height="6"/></g>
<g transform="translate(435,675) scale(4.12)"><rect width="6" height="6"/></g>
<g transform="translate(459,675) scale(4.12)"><rect width="6" height="6"/></g>
<g transform="translate(507,675) scale(4.12)"><rect width="6" height="6"/></g>
<g transform="translate(531,675) scale(4.12)"><rect width="6" height="6"/></g>
<g transform="translate(627,675) scale(4.12)"><rect width="6" height="6"/></g>
<g transform="translate(675,675) scale(4.12)"><rect width="6" height="6"/></g>
<g transform="translate(699,675) scale(4.12)"><rect width="6" height="6"/></g>
<g transform="translate(723,675) scale(4.12)"><rect width="6" height="6"/></g>
<g transform="translate(747,675) scale(4.12)"><rect width="6" height="6"/></g>
<g transform="translate(771,675) scale(4.12)"><rect width="6" height="6"/></g>
<g transform="translate(795,675) scale(4.12)"><rect width="6" height="6"/></g>
<g transform="translate(819,675) scale(4.12)"><rect width="6" height="6"/></g>
<g transform="translate(843,675) scale(4.12)"><rect width="6" height="6"/></g>
<g transform="translate(291,699) scale(4.12)"><rect width="6" height="6"/></g>
<g transform="translate(315,699) scale(4.12)"><rect width="6" height="6"/></g>
<g transform="translate(339,699) scale(4.12)"><rect width="6" height="6"/></g>
<g transform="translate(411,699) scale(4.12)"><rect width="6" height="6"/></g>
<g transform="translate(483,699) scale(4.12)"><rect width="6" height="6"/></g>
<g transform="translate(531,699) scale(4.12)"><rect width="6" height="6"/></g>
<g transform="translate(555,699) scale(4.12)"><rect width="6" height="6"/></g>
<g transform="translate(579,699) scale(4.12)"><rect width="6" height="6"/></g>
<g transform="translate(603,699) scale(4.12)"><rect width="6" height="6"/></g>
<g transform="translate(651,699) scale(4.12)"><rect width="6" height="6"/></g>
<g transform="translate(675,699) scale(4.12)"><rect width="6" height="6"/></g>
<g transform="translate(771,699) scale(4.12)"><rect width="6" height="6"/></g>
<g transform="translate(819,699) scale(4.12)"><rect width="6" height="6"/></g>
<g transform="translate(843,699) scale(4.12)"><rect width="6" height="6"/></g>
<g transform="translate(315,723) scale(4.12)"><rect width="6" height="6"/></g>
<g transform="translate(363,723) scale(4.12)"><rect width="6" height="6"/></g>
<g transform="translate(459,723) scale(4.12)"><rect width="6" height="6"/></g>
<g transform="translate(531,723) scale(4.12)"><rect width="6" height="6"/></g>
<g transform="translate(627,723) scale(4.12)"><rect width="6" height="6"/></g>
<g transform="translate(651,723) scale(4.12)"><rect width="6" height="6"/></g>
<g transform="translate(675,723) scale(4.12)"><rect width="6" height="6"/></g>
<g transform="translate(723,723) scale(4.12)"><rect width="6" height="6"/></g>
<g transform="translate(771,723) scale(4.12)"><rect width="6" height="6"/></g>
<g transform="translate(819,723) scale(4.12)"><rect width="6" height="6"/></g>
<g transform="translate(843,723) scale(4.12)"><rect width="6" height="6"/></g>
<g transform="translate(291,747) scale(4.12)"><rect width="6" height="6"/></g>
<g transform="translate(339,747) scale(4.12)"><rect width="6" height="6"/></g>
<g transform="translate(411,747) scale(4.12)"><rect width="6" height="6"/></g>
<g transform="translate(459,747) scale(4.12)"><rect width="6" height="6"/></g>
<g transform="translate(579,747) scale(4.12)"><rect width="6" height="6"/></g>
<g transform="translate(603,747) scale(4.12)"><rect width="6" height="6"/></g>
<g transform="translate(627,747) scale(4.12)"><rect width="6" height="6"/></g>
<g transform="translate(651,747) scale(4.12)"><rect width="6" height="6"/></g>
<g transform="translate(675,747) scale(4.12)"><rect width="6" height="6"/></g>
<g transform="translate(771,747) scale(4.12)"><rect width="6" height="6"/></g>
<g transform="translate(795,747) scale(4.12)"><rect width="6" height="6"/></g>
<g transform="translate(819,747) scale(4.12)"><rect width="6" height="6"/></g>
<g transform="translate(867,747) scale(4.12)"><rect width="6" height="6"/></g>
<g transform="translate(291,771) scale(4.12)"><rect width="6" height="6"/></g>
<g transform="translate(387,771) scale(4.12)"><rect width="6" height="6"/></g>
<g transform="translate(411,771) scale(4.12)"><rect width="6" height="6"/></g>
<g transform="translate(459,771) scale(4.12)"><rect width="6" height="6"/></g>
<g transform="translate(531,771) scale(4.12)"><rect width="6" height="6"/></g>
<g transform="translate(675,771) scale(4.12)"><rect width="6" height="6"/></g>
<g transform="translate(699,771) scale(4.12)"><rect width="6" height="6"/></g>
<g transform="translate(723,771) scale(4.12)"><rect width="6" height="6"/></g>
<g transform="translate(747,771) scale(4.12)"><rect width="6" height="6"/></g>
<g transform="translate(771,771) scale(4.12)"><rect width="6" height="6"/></g>
<g transform="translate(795,771) scale(4.12)"><rect width="6" height="6"/></g>
<g transform="translate(291,795) scale(4.12)"><rect width="6" height="6"/></g>
<g transform="translate(363,795) scale(4.12)"><rect width="6" height="6"/></g>
<g transform="translate(411,795) scale(4.12)"><rect width="6" height="6"/></g>
<g transform="translate(435,795) scale(4.12)"><rect width="6" height="6"/></g>
<g transform="translate(459,795) scale(4.12)"><rect width="6" height="6"/></g>
<g transform="translate(483,795) scale(4.12)"><rect width="6" height="6"/></g>
<g transform="translate(507,795) scale(4.12)"><rect width="6" height="6"/></g>
<g transform="translate(555,795) scale(4.12)"><rect width="6" height="6"/></g>
<g transform="translate(579,795) scale(4.12)"><rect width="6" height="6"/></g>
<g transform="translate(651,795) scale(4.12)"><rect width="6" height="6"/></g>
<g transform="translate(675,795) scale(4.12)"><rect width="6" height="6"/></g>
<g transform="translate(771,795) scale(4.12)"><rect width="6" height="6"/></g>
<g transform="translate(795,795) scale(4.12)"><rect width="6" height="6"/></g>
<g transform="translate(867,795) scale(4.12)"><rect width="6" height="6"/></g>
<g transform="translate(291,819) scale(4.12)"><rect width="6" height="6"/></g>
<g transform="translate(339,819) scale(4.12)"><rect width="6" height="6"/></g>
<g transform="translate(387,819) scale(4.12)"><rect width="6" height="6"/></g>
<g transform="translate(507,819) scale(4.12)"><rect width="6" height="6"/></g>
<g transform="translate(555,819) scale(4.12)"><rect width="6" height="6"/></g>
<g transform="translate(603,819) scale(4.12)"><rect width="6" height="6"/></g>
<g transform="translate(651,819) scale(4.12)"><rect width="6" height="6"/></g>
<g transform="translate(723,819) scale(4.12)"><rect width="6" height="6"/></g>
<g transform="translate(747,819) scale(4.12)"><rect width="6" height="6"/></g>
<g transform="translate(795,819) scale(4.12)"><rect width="6" height="6"/></g>
<g transform="translate(315,843) scale(4.12)"><rect width="6" height="6"/></g>
<g transform="translate(339,843) scale(4.12)"><rect width="6" height="6"/></g>
<g transform="translate(387,843) scale(4.12)"><rect width="6" height="6"/></g>
<g transform="translate(435,843) scale(4.12)"><rect width="6" height="6"/></g>
<g transform="translate(483,843) scale(4.12)"><rect width="6" height="6"/></g>
<g transform="translate(555,843) scale(4.12)"><rect width="6" height="6"/></g>
<g transform="translate(603,843) scale(4.12)"><rect width="6" height="6"/></g>
<g transform="translate(627,843) scale(4.12)"><rect width="6" height="6"/></g>
<g transform="translate(771,843) scale(4.12)"><rect width="6" height="6"/></g>
<g transform="translate(795,843) scale(4.12)"><rect width="6" height="6"/></g>
<g transform="translate(819,843) scale(4.12)"><rect width="6" height="6"/></g>
<g transform="translate(291,867) scale(4.12)"><rect width="6" height="6"/></g>
<g transform="translate(339,867) scale(4.12)"><rect width="6" height="6"/></g>
<g transform="translate(363,867) scale(4.12)"><rect width="6" height="6"/></g>
<g transform="translate(411,867) scale(4.12)"><rect width="6" height="6"/></g>
<g transform="translate(483,867) scale(4.12)"><rect width="6" height="6"/></g>
<g transform="translate(507,867) scale(4.12)"><rect width="6" height="6"/></g>
<g transform="translate(579,867) scale(4.12)"><rect width="6" height="6"/></g>
<g transform="translate(627,867) scale(4.12)"><rect width="6" height="6"/></g>
<g transform="translate(675,867) scale(4.12)"><rect width="6" height="6"/></g>
<g transform="translate(699,867) scale(4.12)"><rect width="6" height="6"/></g>
<g transform="translate(723,867) scale(4.12)"><rect width="6" height="6"/></g>
<g transform="translate(747,867) scale(4.12)"><rect width="6" height="6"/></g>
<g transform="translate(819,867) scale(4.12)"><rect width="6" height="6"/></g>
<g transform="translate(843,867) scale(4.12)"><rect width="6" height="6"/></g>
<g transform="translate(99,99)"><g transform="scale(12)"><path d="M0,0v14h14V0H0z M12,12H2V2h10V12z"/></g></g>
<g transform="translate(723,99)"><g transform="scale(12)"><path d="M0,0v14h14V0H0z M12,12H2V2h10V12z"/></g></g>
<g transform="translate(99,723)"><g transform="scale(12)"><path d="M0,0v14h14V0H0z M12,12H2V2h10V12z"/></g></g>
<g transform="translate(147,147)"><g transform="scale(12)"><rect width="6" height="6"/></g></g>
<g transform="translate(771,147)"><g transform="scale(12)"><rect width="6" height="6"/></g></g>
<g transform="translate(147,771)"><g transform="scale(12)"><rect width="6" height="6"/></g></g>
</g><g transform="translate(296.93125,935) scale(1.375)"><path fill="#000000" d="M18.8,67.4l0,61.4q0,4.3,2.55,5.75t7.05,1.45l0,2.1q-2.2-0.1-6.1-0.25t-8.3-0.15q-3.1,0-6.15,0.15t-4.65,0.25l0-2.1q3.6,0,5.1-1.3t1.5-4.9l0-50.4q0-4.5-1.6-6.65t-6-2.15l0-2.1q3.2,0.3,6.2,0.3q2.9,0,5.55-0.35t4.85-1.05z M34.8,67.1q7.9,0,13.25,6.35t5.35,18.45q0,7.2-2.35,14t-7.35,11.15t-13.2,4.35q-4.7,0-8.15-2.2t-4.65-5.3l1-1.4q1.4,2.8,4.05,4.7t6.65,1.9q5.6,0,8.7-3.5t4.35-9.35t1.25-12.95q0-8-1.3-13.1t-3.9-7.6t-6.4-2.5q-4.9,0-8.9,4.05t-5.1,12.25l-1.2-1.4q1.1-8.5,6.05-13.2t11.85-4.7z M85.5,67.1q6.4,0,11.5,2.8t8.15,8.8t3.05,15.6t-3.05,15.55t-8.15,8.75t-11.5,2.8q-6.3,0-11.45-2.8t-8.2-8.75t-3.05-15.55t3.05-15.6t8.2-8.8t11.45-2.8z M85.5,69.1q-5.7,0-9.35,5.9t-3.65,19.3t3.65,19.25t9.35,5.85t9.35-5.85t3.65-19.25t-3.65-19.3t-9.35-5.9z M133.7,67.1q4,0,6.8,1.3t4.1,2.4q3.3,2.7,4-3.6l2.3,0q-0.2,2.8-0.3,6.65t-0.1,10.35l-2.3,0q-0.6-3.7-2.05-7.2t-4.25-5.75t-7.3-2.25q-3.5,0-5.85,1.95t-2.35,5.75q0,3,1.8,5.15t4.7,4t6.3,4.05q5.7,3.7,9.7,7.5t4,10q0,4.6-2.4,7.7t-6.25,4.7t-8.45,1.6q-2.2,0-4.15-0.35t-3.75-1.05q-1-0.5-2.05-1.2t-2.05-1.5t-1.8,0.05t-1.2,3.35l-2.3,0q0.2-3.2,0.3-7.8t0.1-12.2l2.3,0q0.7,5.6,2,9.8t4.1,6.55t7.8,2.35q3,0,5.95-2.1t2.95-7.4q0-4.4-3.2-7.2t-8.1-5.9q-3.6-2.3-6.75-4.6t-5.1-5.2t-1.95-7q0-4.5,2.05-7.35t5.45-4.2t7.3-1.35z M176.6,51.9l0,16.7l14.8,0l0,2l-14.8,0l0,38.7q0,4.7,1.7,6.6t4.7,1.9t5.2-2.45t3.8-8.25l2,0.5q-1,5.8-3.95,9.8t-9.05,4q-3.4,0-5.6-0.85t-3.9-2.45q-2.2-2.3-3.05-5.5t-0.85-8.5l0-33.5l-9.6,0l0-2l9.6,0l0-15.3q2.5-0.1,4.8-0.4t4.2-1z M220.2,67.1q8.8,0,13.75,5.35t4.95,16.65l-35.3,0l-0.1-1.9l25.8,0q0.2-4.9-0.8-9.05t-3.15-6.65t-5.55-2.5q-4.6,0-8.15,4.6t-4.25,14.6l0.3,0.4q-0.2,1.5-0.3,3.3t-0.1,3.6q0,6.8,2.2,11.7t5.75,7.45t7.35,2.55q4.5,0,8.3-2.2t6.4-7.8l2,0.8q-1.1,3.3-3.6,6.4t-6.3,5.05t-8.8,1.95q-7.2,0-12.35-3.3t-7.9-9.15t-2.75-13.45q0-8.8,2.8-15.15t7.9-9.8t11.9-3.45z M277.6,67.1q2.7,0,4.75,1.1t3.2,2.85t1.15,3.95q0,2.5-1.55,4.4t-4.15,1.9q-2.1,0-3.7-1.35t-1.6-3.85q0-1.9,1.05-3.25t2.35-2.15q-0.7-1-2.1-1q-4.2,0-7.3,3.15t-4.85,7.55t-1.75,8.1l0,21.2q0,4.9,2.85,6.55t7.75,1.65l0,2.1q-2.3-0.1-6.5-0.25t-8.9-0.15q-3.4,0-6.75,0.15t-5.05,0.25l0-2.1q4.1,0,5.85-1.5t1.75-5.7l0-31.3q0-4.5-1.6-6.65t-6-2.15l0-2.1q3.2,0.3,6.2,0.3q2.9,0,5.55-0.35t4.85-1.05l0,12.5q1.1-2.9,3.15-5.85t4.95-4.95t6.4-2z"/></g></svg>
